<?xml version="1.0" encoding="UTF-8" standalone="no"?>
<!-- Created with Inkscape (http://www.inkscape.org/) -->

<svg
   width="639"
   height="76.358002"
   viewBox="0 0 169.06875 20.203055"
   version="1.1"
   id="svg4436"
   inkscape:version="1.1.2 (0a00cf5339, 2022-02-04)"
   sodipodi:docname="taңba-bolme gimarat jobalar.svg"
   xmlns:inkscape="http://www.inkscape.org/namespaces/inkscape"
   xmlns:sodipodi="http://sodipodi.sourceforge.net/DTD/sodipodi-0.dtd"
   xmlns="http://www.w3.org/2000/svg"
   xmlns:svg="http://www.w3.org/2000/svg">
  <sodipodi:namedview
     id="namedview4438"
     pagecolor="#ffffff"
     bordercolor="#666666"
     borderopacity="1.0"
     inkscape:pageshadow="2"
     inkscape:pageopacity="0.0"
     inkscape:pagecheckerboard="0"
     inkscape:document-units="mm"
     showgrid="false"
     units="px"
     inkscape:zoom="0.9983453"
     inkscape:cx="338.56022"
     inkscape:cy="26.543922"
     inkscape:window-width="1600"
     inkscape:window-height="848"
     inkscape:window-x="0"
     inkscape:window-y="0"
     inkscape:window-maximized="1"
     inkscape:current-layer="layer1"
     showguides="true"
     inkscape:guide-bbox="true" />
  <defs
     id="defs4433">
    <style
       type="text/css"
       id="style4624"><![CDATA[
    .str0 {stroke:#6B470F;stroke-width:341.67;stroke-miterlimit:22.9256}
    .fil0 {fill:none}
    .fil1 {fill:#6B470F}
   ]]></style>
  </defs>
  <g
     inkscape:label="Layer 1"
     inkscape:groupmode="layer"
     id="layer1">
    <g
       id="g4277">
      <path
         id="rect154481"
         style="display:inline;fill:none;stroke-width:1.48661"
         d="M 0.23386478,0.23386478 H 121.67761 V 20.436919 H 0.23386478 Z" />
      <path
         d="m 12.351096,4.3713196 c -5.6500089,0.89196 -7.5332059,4.4408 -8.0885089,6.5223204 -0.485671,1.80392 -0.346799,4.7678 3.687329,4.86704 1.308522,0 5.1148109,-0.008 8.2368899,0 3.876033,0.008 4.956378,-3.09264 4.867267,-5.75912 -0.16964,-4.8415604 -4.527332,-6.2833204 -8.702977,-5.6302404 z"
         style="display:inline;fill:none;stroke:#878678;stroke-width:2.25002;stroke-linecap:butt;stroke-linejoin:miter;stroke-dasharray:none;stroke-opacity:1"
         id="path982-7"
         inkscape:connector-curvature="0"
         inkscape:export-filename="/home/m/Жүктемелер/rect154481.png"
         inkscape:export-xdpi="96"
         inkscape:export-ydpi="96" />
      <path
         d="m 7.2752291,11.23048 c 0,-1.12436 0.918107,-2.0425604 2.042477,-2.0425604 1.1244779,0 2.0425809,0.9182004 2.0425809,2.0425604 0,1.1244 -0.918103,2.0426 -2.0425809,2.0426 -1.12437,0 -2.042477,-0.9182 -2.042477,-2.0426 z"
         style="display:inline;fill:#878678;fill-opacity:1;fill-rule:evenodd;stroke-width:1.05832"
         id="path984-5"
         inkscape:connector-curvature="0"
         inkscape:export-filename="/home/m/Жүктемелер/rect154481.png"
         inkscape:export-xdpi="96"
         inkscape:export-ydpi="96" />
      <g
         aria-label="Қalpan kөrmesý sk-joba@outlook.com"
         id="text2286"
         style="font-size:12.7px;line-height:0;-inkscape-font-specification:sans-serif;display:inline;fill:#878678;stroke-width:1.05832">
        <path
           d="m 24.790052,4.915091 h 1.193726 V 6.8250519 L 27.85033,4.915091 h 1.351856 l -1.838648,1.8758545 1.305347,1.8510498 h 0.63562 V 9.5442657 10.539554 H 28.11388 V 9.5442657 H 27.989857 L 26.597694,7.5722931 25.983778,8.1986115 v 1.3456542 h -1.193726 z"
           style="font-weight:bold;font-size:6.35px;line-height:0.7;-inkscape-font-specification:'sans-serif Bold'"
           id="path841" />
        <path
           d="m 31.217567,7.9815705 q -0.347266,0 -0.523999,0.1178222 -0.173633,0.1178223 -0.173633,0.3472656 0,0.2108399 0.139526,0.3317627 0.142627,0.1178223 0.393775,0.1178223 0.313159,0 0.527099,-0.2232422 0.213941,-0.2263428 0.213941,-0.5643066 v -0.127124 z m 1.69602,-0.4185791 V 9.5442657 H 31.794276 V 9.0295685 q -0.223242,0.3162598 -0.502295,0.4619873 -0.279053,0.1426269 -0.679029,0.1426269 -0.539501,0 -0.877465,-0.3131591 -0.334864,-0.3162598 -0.334864,-0.8185547 0,-0.6108154 0.41858,-0.8960693 0.421679,-0.2852539 1.320849,-0.2852539 h 0.654224 v -0.086816 q 0,-0.2635498 -0.20774,-0.3844727 -0.207739,-0.1240234 -0.648022,-0.1240234 -0.356567,0 -0.663525,0.071313 -0.306958,0.071314 -0.570508,0.2139405 v -0.84646 q 0.356567,-0.086816 0.716235,-0.1302246 0.359668,-0.046509 0.719336,-0.046509 0.939478,0 1.354956,0.3720703 0.418579,0.3689698 0.418579,1.2030276 z"
           style="font-weight:bold;font-size:6.35px;line-height:0.7;-inkscape-font-specification:'sans-serif Bold'"
           id="path843" />
        <path
           d="m 33.946082,4.7197541 h 1.11001 v 4.8245116 h -1.11001 z"
           style="font-weight:bold;font-size:6.35px;line-height:0.7;-inkscape-font-specification:'sans-serif Bold'"
           id="path845" />
        <path
           d="m 37.232703,9.0419708 v 1.8231442 h -1.11001 V 6.0716095 h 1.11001 v 0.5084961 q 0.229444,-0.3038574 0.508496,-0.4464843 0.279053,-0.1457276 0.641822,-0.1457276 0.641821,0 1.054199,0.5115967 0.412378,0.5084961 0.412378,1.3115478 0,0.8030518 -0.412378,1.3146485 -0.412378,0.508496 -1.054199,0.508496 -0.362769,0 -0.641822,-0.1426269 -0.279052,-0.1457275 -0.508496,-0.449585 z m 0.73794,-2.2479247 q -0.356568,0 -0.548804,0.2635498 -0.189136,0.2604492 -0.189136,0.7534423 0,0.4929932 0.189136,0.756543 0.192236,0.2604492 0.548804,0.2604492 0.356567,0 0.542602,-0.2604492 0.189136,-0.2604492 0.189136,-0.756543 0,-0.4960937 -0.189136,-0.7565429 Q 38.32721,6.7940461 37.970643,6.7940461 Z"
           style="font-weight:bold;font-size:6.35px;line-height:0.7;-inkscape-font-specification:'sans-serif Bold'"
           id="path847" />
        <path
           d="m 42.224646,7.9815705 q -0.347265,0 -0.523999,0.1178222 -0.173632,0.1178223 -0.173632,0.3472656 0,0.2108399 0.139526,0.3317627 0.142627,0.1178223 0.393774,0.1178223 0.313159,0 0.5271,-0.2232422 0.21394,-0.2263428 0.21394,-0.5643066 V 7.9815705 Z M 43.920667,7.5629914 V 9.5442657 H 42.801355 V 9.0295685 q -0.223242,0.3162598 -0.502295,0.4619873 -0.279052,0.1426269 -0.679028,0.1426269 -0.539502,0 -0.877466,-0.3131591 -0.334863,-0.3162598 -0.334863,-0.8185547 0,-0.6108154 0.418579,-0.8960693 0.42168,-0.2852539 1.32085,-0.2852539 h 0.654223 v -0.086816 q 0,-0.2635498 -0.207739,-0.3844727 -0.207739,-0.1240234 -0.648022,-0.1240234 -0.356568,0 -0.663526,0.071313 -0.306958,0.071314 -0.570508,0.2139405 v -0.84646 q 0.356568,-0.086816 0.716236,-0.1302246 0.359668,-0.046509 0.719336,-0.046509 0.939477,0 1.354956,0.3720703 0.418579,0.3689698 0.418579,1.2030276 z"
           style="font-weight:bold;font-size:6.35px;line-height:0.7;-inkscape-font-specification:'sans-serif Bold'"
           id="path849" />
        <path
           d="M 48.444421,7.4296662 V 9.5442657 H 47.32821 V 9.2001007 7.9257599 q 0,-0.4495849 -0.0217,-0.6201172 -0.0186,-0.1705322 -0.06821,-0.2511474 -0.06511,-0.1085205 -0.176733,-0.1674317 -0.111621,-0.062012 -0.254248,-0.062012 -0.347266,0 -0.545703,0.269751 -0.198438,0.2666504 -0.198438,0.74104 V 9.5442657 H 44.953162 V 6.0716095 h 1.110009 v 0.5084961 q 0.251148,-0.3038574 0.533301,-0.4464843 0.282153,-0.1457276 0.623218,-0.1457276 0.601514,0 0.911572,0.3689698 0.313159,0.3689697 0.313159,1.0728027 z"
           style="font-weight:bold;font-size:6.35px;line-height:0.7;-inkscape-font-specification:'sans-serif Bold'"
           id="path851" />
        <path
           d="m 24.50342,10.735991 h 0.616673 v 1.458999 l 0.70969,-0.707967 h 0.71658 l -0.942234,0.88539 1.016304,1.043864 h -0.747586 l -0.752754,-0.80443 v 0.80443 H 24.50342 Z"
           style="font-weight:bold;font-size:3.52778px;line-height:0.6;-inkscape-font-specification:'sans-serif Bold'"
           id="path853" />
        <path
           d="m 27.76765,11.440514 q 0.497817,0 0.77687,0.268717 0.280775,0.268718 0.280775,0.744142 0,0.475423 -0.280775,0.744141 -0.279053,0.268717 -0.77687,0.268717 -0.499539,0 -0.782037,-0.268717 -0.280775,-0.268718 -0.280775,-0.744141 0,-0.475424 0.280775,-0.744142 0.282498,-0.268717 0.782037,-0.268717 z m -0.0052,0.440972 q -0.201539,0 -0.308337,0.146417 -0.06201,0.08613 -0.08785,0.217041 h 0.797541 q -0.02584,-0.130914 -0.08957,-0.217041 -0.106798,-0.146417 -0.311781,-0.146417 z m 0.413411,0.697633 h -0.821655 q 0.01895,0.187757 0.09991,0.299723 0.106798,0.146417 0.308337,0.146417 0.204983,0 0.311781,-0.146417 0.08268,-0.111966 0.10163,-0.299723 z"
           style="font-weight:bold;font-size:3.52778px;line-height:0.6;-inkscape-font-specification:'sans-serif Bold'"
           id="path855" />
        <path
           d="m 30.706319,12.0124 q -0.08096,-0.0379 -0.16192,-0.05512 -0.07924,-0.01895 -0.160197,-0.01895 -0.237712,0 -0.366903,0.153307 -0.127469,0.151585 -0.127469,0.435805 v 0.888835 h -0.616672 v -1.929254 h 0.616672 v 0.316949 q 0.118856,-0.189481 0.272163,-0.275608 0.15503,-0.08785 0.370348,-0.08785 0.03101,0 0.06718,0.0034 0.03617,0.0017 0.105075,0.01034 z"
           style="font-weight:bold;font-size:3.52778px;line-height:0.6;-inkscape-font-specification:'sans-serif Bold'"
           id="path857" />
        <path
           d="m 32.800938,11.807417 q 0.117133,-0.179145 0.27733,-0.272163 0.16192,-0.09474 0.354845,-0.09474 0.332452,0 0.50643,0.204983 0.173977,0.204983 0.173977,0.596002 v 1.174778 h -0.620117 v -1.005968 q 0.0017,-0.02239 0.0017,-0.04651 0.0017,-0.02412 0.0017,-0.0689 0,-0.204983 -0.06029,-0.296278 -0.06029,-0.09302 -0.194648,-0.09302 -0.1757,0 -0.272162,0.144694 -0.09474,0.144694 -0.09819,0.418579 v 0.947402 h -0.620117 v -1.005968 q 0,-0.320394 -0.05512,-0.411689 -0.05512,-0.09302 -0.19637,-0.09302 -0.177423,0 -0.273886,0.146417 -0.09646,0.144694 -0.09646,0.415134 v 0.949124 H 31.009442 V 11.48702 h 0.620118 v 0.282498 q 0.113688,-0.163642 0.260105,-0.246325 0.148139,-0.08268 0.325561,-0.08268 0.199816,0 0.353123,0.09646 0.153307,0.09646 0.232544,0.27044 z"
           style="font-weight:bold;font-size:3.52778px;line-height:0.6;-inkscape-font-specification:'sans-serif Bold'"
           id="path859" />
        <path
           d="m 36.614661,12.446482 v 0.1757 h -1.441773 q 0.02239,0.217042 0.156752,0.325562 0.134359,0.108521 0.375516,0.108521 0.194648,0 0.397908,-0.05684 0.204984,-0.05857 0.420302,-0.1757 v 0.475423 q -0.218763,0.08268 -0.437527,0.124024 -0.218764,0.04306 -0.437528,0.04306 -0.523654,0 -0.814765,-0.265272 -0.289388,-0.266995 -0.289388,-0.747586 0,-0.471979 0.28422,-0.742419 0.285943,-0.27044 0.785482,-0.27044 0.454753,0 0.726916,0.273885 0.273885,0.273885 0.273885,0.732082 z m -0.633898,-0.204983 q 0,-0.1757 -0.103353,-0.282498 -0.10163,-0.108521 -0.266995,-0.108521 -0.179145,0 -0.29111,0.101631 -0.111966,0.09991 -0.139527,0.289388 z"
           style="font-weight:bold;font-size:3.52778px;line-height:0.6;-inkscape-font-specification:'sans-serif Bold'"
           id="path861" />
        <path
           d="m 38.588702,11.547312 v 0.468533 q -0.198093,-0.08268 -0.382406,-0.124023 -0.184312,-0.04134 -0.347955,-0.04134 -0.1757,0 -0.261827,0.04479 -0.0844,0.04306 -0.0844,0.134359 0,0.07407 0.06373,0.113688 0.06546,0.03962 0.232544,0.05857 l 0.108521,0.0155 q 0.473701,0.06029 0.637343,0.198093 0.163642,0.137804 0.163642,0.43236 0,0.308336 -0.227376,0.463366 -0.227377,0.155029 -0.678684,0.155029 -0.191203,0 -0.396187,-0.03101 -0.20326,-0.02928 -0.418579,-0.08957 V 12.87712 q 0.184313,0.08957 0.377238,0.134358 0.194648,0.04479 0.394464,0.04479 0.180867,0 0.272163,-0.04995 0.0913,-0.04995 0.0913,-0.148139 0,-0.08268 -0.06374,-0.122301 -0.06201,-0.04134 -0.249769,-0.06373 l -0.108521,-0.01378 q -0.411689,-0.05168 -0.577054,-0.191203 -0.165364,-0.139527 -0.165364,-0.423747 0,-0.306614 0.210151,-0.454753 0.210151,-0.148139 0.644233,-0.148139 0.170532,0 0.35829,0.02584 0.187758,0.02584 0.408244,0.08096 z"
           style="font-weight:bold;font-size:3.52778px;line-height:0.6;-inkscape-font-specification:'sans-serif Bold'"
           id="path863" />
        <path
           d="m 38.928044,11.487023 h 0.616672 l 0.518488,1.309137 0.440972,-1.309137 h 0.616673 l -0.811321,2.111845 q -0.122301,0.322116 -0.285943,0.449585 -0.16192,0.129191 -0.428915,0.129191 h -0.356567 v -0.404799 h 0.192925 q 0.156752,0 0.227377,-0.04995 0.07235,-0.04995 0.111965,-0.179145 l 0.01723,-0.0534 z m 1.340143,-0.892281 h 0.487481 l -0.63562,0.647679 h -0.33762 z"
           style="font-weight:bold;font-size:3.52778px;line-height:0.6;-inkscape-font-specification:'sans-serif Bold'"
           id="path865" />
        <path
           d="m 25.289248,15.735859 v 0.28112 q -0.118856,-0.04961 -0.229444,-0.07441 -0.110587,-0.02481 -0.208773,-0.02481 -0.10542,0 -0.157096,0.02687 -0.05064,0.02584 -0.05064,0.08061 0,0.04444 0.03824,0.06821 0.03927,0.02377 0.139527,0.03514 l 0.06511,0.0093 q 0.284221,0.03617 0.382406,0.118856 0.09819,0.08268 0.09819,0.259416 0,0.185002 -0.136426,0.278019 -0.136426,0.09302 -0.407211,0.09302 -0.114722,0 -0.237712,-0.0186 -0.121957,-0.01757 -0.251148,-0.05374 v -0.28112 q 0.110588,0.05374 0.226343,0.08062 0.116789,0.02687 0.236679,0.02687 0.10852,0 0.163297,-0.02997 0.05478,-0.02997 0.05478,-0.08888 0,-0.04961 -0.03824,-0.07338 -0.03721,-0.0248 -0.149862,-0.03824 l -0.06511,-0.0083 q -0.247014,-0.03101 -0.346233,-0.114722 -0.09922,-0.08372 -0.09922,-0.254249 0,-0.183968 0.126091,-0.272852 0.12609,-0.08888 0.38654,-0.08888 0.10232,0 0.214974,0.0155 0.112655,0.0155 0.244947,0.04858 z"
           style="font-weight:bold;font-size:2.11667px;line-height:0.3;-inkscape-font-specification:'sans-serif Bold';opacity:0.215582;fill:#57574d"
           id="path867" />
        <path
           d="m 25.644782,15.249066 h 0.370004 v 0.8754 l 0.425815,-0.424781 h 0.429948 l -0.565341,0.531235 0.609783,0.626319 H 26.466439 L 26.014786,16.37458 v 0.482659 h -0.370004 z"
           style="font-weight:bold;font-size:2.11667px;line-height:0.3;-inkscape-font-specification:'sans-serif Bold';opacity:0.215582;fill:#57574d"
           id="path869" />
        <path
           d="m 26.989405,16.097594 h 0.649057 v 0.300757 h -0.649057 z"
           style="font-weight:bold;font-size:2.11667px;line-height:0.3;-inkscape-font-specification:'sans-serif Bold';opacity:0.215582;fill:#57574d"
           id="path871" />
        <path
           d="m 27.930951,15.699685 h 0.370004 v 1.136883 q 0,0.232545 -0.111621,0.354501 -0.111621,0.12299 -0.323495,0.12299 H 27.682904 V 17.07118 h 0.06408 q 0.10542,0 0.144694,-0.04754 0.03927,-0.04754 0.03927,-0.187069 z m 0,-0.450619 h 0.370004 v 0.301791 h -0.370004 z"
           style="font-weight:bold;font-size:2.11667px;line-height:0.3;-inkscape-font-specification:'sans-serif Bold';opacity:0.215582;fill:#57574d"
           id="path873" />
        <path
           d="m 29.207361,15.936363 q -0.12299,0 -0.188103,0.08888 -0.06408,0.08785 -0.06408,0.254248 0,0.166399 0.06408,0.255282 0.06511,0.08785 0.188103,0.08785 0.120923,0 0.185002,-0.08785 0.06408,-0.08888 0.06408,-0.255282 0,-0.166398 -0.06408,-0.254248 -0.06408,-0.08888 -0.185002,-0.08888 z m 0,-0.264583 q 0.29869,0 0.466122,0.16123 0.168465,0.161231 0.168465,0.446485 0,0.285255 -0.168465,0.446485 -0.167432,0.161231 -0.466122,0.161231 -0.299724,0 -0.469223,-0.161231 -0.168465,-0.16123 -0.168465,-0.446485 0,-0.285254 0.168465,-0.446485 0.169499,-0.16123 0.469223,-0.16123 z"
           style="font-weight:bold;font-size:2.11667px;line-height:0.3;-inkscape-font-specification:'sans-serif Bold';opacity:0.215582;fill:#57574d"
           id="path875" />
        <path
           d="m 30.726651,16.618493 q 0.118856,0 0.180867,-0.08682 0.06305,-0.08682 0.06305,-0.252182 0,-0.165364 -0.06305,-0.252181 -0.06201,-0.08682 -0.180867,-0.08682 -0.118856,0 -0.182935,0.08785 -0.06305,0.08682 -0.06305,0.251147 0,0.164332 0.06305,0.252182 0.06408,0.08682 0.182935,0.08682 z M 30.48067,15.869184 q 0.07648,-0.101286 0.169499,-0.148828 0.09302,-0.04858 0.213941,-0.04858 0.213941,0 0.3514,0.170532 0.13746,0.169499 0.13746,0.437183 0,0.267685 -0.13746,0.438217 -0.137459,0.169499 -0.3514,0.169499 -0.120923,0 -0.213941,-0.04754 -0.09302,-0.04858 -0.169499,-0.149862 v 0.167432 h -0.370003 v -1.608173 h 0.370003 z"
           style="font-weight:bold;font-size:2.11667px;line-height:0.3;-inkscape-font-specification:'sans-serif Bold';opacity:0.215582;fill:#57574d"
           id="path877" />
        <path
           d="m 32.144654,16.33634 q -0.115755,0 -0.174666,0.03927 -0.05788,0.03927 -0.05788,0.115755 0,0.07028 0.04651,0.110588 0.04754,0.03927 0.131258,0.03927 0.104387,0 0.1757,-0.07441 0.07131,-0.07545 0.07131,-0.188103 v -0.04237 z m 0.565341,-0.139527 v 0.660426 h -0.373104 v -0.171566 q -0.07441,0.10542 -0.167432,0.153996 -0.09302,0.04754 -0.226343,0.04754 -0.179834,0 -0.292489,-0.104386 -0.111622,-0.10542 -0.111622,-0.272852 0,-0.203606 0.139527,-0.298691 0.14056,-0.09508 0.440284,-0.09508 h 0.218075 v -0.02894 q 0,-0.08785 -0.06925,-0.128158 -0.06925,-0.04134 -0.216008,-0.04134 -0.118856,0 -0.221175,0.02377 -0.10232,0.02377 -0.19017,0.07131 v -0.282154 q 0.118856,-0.02894 0.238746,-0.04341 0.119889,-0.0155 0.239779,-0.0155 0.31316,0 0.451653,0.124023 0.139526,0.12299 0.139526,0.40101 z"
           style="font-weight:bold;font-size:2.11667px;line-height:0.3;-inkscape-font-specification:'sans-serif Bold';opacity:0.215582;fill:#57574d"
           id="path879" />
        <path
           d="m 33.735257,16.300166 q 0,0.127124 0.05374,0.200505 0.05478,0.07338 0.147794,0.07338 0.09199,0 0.146762,-0.07338 0.05478,-0.07441 0.05478,-0.200505 0,-0.125057 -0.05581,-0.197404 -0.05478,-0.07338 -0.147795,-0.07338 -0.09095,0 -0.145727,0.07338 -0.05374,0.07235 -0.05374,0.197404 z m 0.423747,0.311093 q -0.03101,0.07338 -0.100252,0.114721 -0.06821,0.04031 -0.160197,0.04031 -0.177767,0 -0.289389,-0.128158 -0.110587,-0.129191 -0.110587,-0.335897 0,-0.206706 0.111621,-0.335897 0.111621,-0.129192 0.288355,-0.129192 0.09198,0 0.160197,0.04134 0.06925,0.04134 0.100252,0.114722 v -0.135393 h 0.216008 v 0.716237 q 0.128158,-0.01964 0.201539,-0.122991 0.07338,-0.104386 0.07338,-0.26665 0,-0.103353 -0.02997,-0.19327 -0.02997,-0.09095 -0.09095,-0.166399 -0.09819,-0.126091 -0.24598,-0.194304 -0.146761,-0.06821 -0.318327,-0.06821 -0.11989,0 -0.229444,0.03204 -0.109554,0.03101 -0.202572,0.09198 -0.152962,0.101286 -0.238745,0.262517 -0.08475,0.160197 -0.08475,0.347266 0,0.153996 0.05478,0.289388 0.05581,0.134359 0.160197,0.237712 0.103353,0.101286 0.236679,0.153996 0.134359,0.05374 0.286288,0.05374 0.130224,0 0.260449,-0.04858 0.130225,-0.04858 0.222209,-0.131258 l 0.110588,0.167432 q -0.129191,0.100252 -0.282154,0.152962 -0.151929,0.05374 -0.309025,0.05374 -0.191203,0 -0.360702,-0.06821 -0.169499,-0.06718 -0.301791,-0.196371 -0.132292,-0.129191 -0.201539,-0.29869 -0.06925,-0.170533 -0.06925,-0.36587 0,-0.188103 0.07028,-0.358635 0.07028,-0.170533 0.200505,-0.299724 0.130225,-0.128158 0.302824,-0.198438 0.173633,-0.07028 0.359669,-0.07028 0.23151,0 0.420646,0.08888 0.189137,0.08785 0.316261,0.254248 0.07752,0.101286 0.116789,0.220142 0.04031,0.117823 0.04031,0.248048 0,0.280086 -0.168465,0.435116 -0.168466,0.155029 -0.475424,0.155029 h -0.04031 z"
           style="font-weight:bold;font-size:2.11667px;line-height:0.3;-inkscape-font-specification:'sans-serif Bold';opacity:0.215582;fill:#57574d"
           id="path881" />
        <path
           d="m 35.721702,15.936363 q -0.12299,0 -0.188103,0.08888 -0.06408,0.08785 -0.06408,0.254248 0,0.166399 0.06408,0.255282 0.06511,0.08785 0.188103,0.08785 0.120923,0 0.185002,-0.08785 0.06408,-0.08888 0.06408,-0.255282 0,-0.166398 -0.06408,-0.254248 -0.06408,-0.08888 -0.185002,-0.08888 z m 0,-0.264583 q 0.29869,0 0.466122,0.16123 0.168465,0.161231 0.168465,0.446485 0,0.285255 -0.168465,0.446485 -0.167432,0.161231 -0.466122,0.161231 -0.299724,0 -0.469223,-0.161231 -0.168465,-0.16123 -0.168465,-0.446485 0,-0.285254 0.168465,-0.446485 0.169499,-0.16123 0.469223,-0.16123 z"
           style="font-weight:bold;font-size:2.11667px;line-height:0.3;-inkscape-font-specification:'sans-serif Bold';opacity:0.215582;fill:#57574d"
           id="path883" />
        <path
           d="m 36.612605,16.40662 v -0.706935 h 0.372071 v 0.115755 q 0,0.09405 -10e-4,0.236679 -0.001,0.141593 -0.001,0.189136 0,0.139526 0.0072,0.201538 0.0072,0.06098 0.02481,0.08888 0.02274,0.03617 0.05891,0.05581 0.03721,0.01964 0.08475,0.01964 0.115755,0 0.181901,-0.08888 0.06615,-0.08888 0.06615,-0.247014 v -0.571542 h 0.370004 v 1.157554 h -0.370004 v -0.167432 q -0.08372,0.101286 -0.177767,0.149862 -0.09302,0.04754 -0.205673,0.04754 -0.200505,0 -0.305925,-0.12299 -0.104386,-0.12299 -0.104386,-0.357601 z"
           style="font-weight:bold;font-size:2.11667px;line-height:0.3;-inkscape-font-specification:'sans-serif Bold';opacity:0.215582;fill:#57574d"
           id="path885" />
        <path
           d="m 38.536005,15.371022 v 0.328663 h 0.381372 v 0.264584 h -0.381372 v 0.490927 q 0,0.08061 0.03204,0.109554 0.03204,0.02791 0.127124,0.02791 h 0.19017 v 0.264584 h -0.317294 q -0.219108,0 -0.311092,-0.09095 -0.09095,-0.09198 -0.09095,-0.311092 v -0.490927 h -0.183968 v -0.264584 h 0.183968 v -0.328663 z"
           style="font-weight:bold;font-size:2.11667px;line-height:0.3;-inkscape-font-specification:'sans-serif Bold';opacity:0.215582;fill:#57574d"
           id="path887" />
        <path
           d="m 39.143721,15.249066 h 0.370004 v 1.608173 h -0.370004 z"
           style="font-weight:bold;font-size:2.11667px;line-height:0.3;-inkscape-font-specification:'sans-serif Bold';opacity:0.215582;fill:#57574d"
           id="path889" />
        <path
           d="m 40.420131,15.936363 q -0.12299,0 -0.188103,0.08888 -0.06408,0.08785 -0.06408,0.254248 0,0.166399 0.06408,0.255282 0.06511,0.08785 0.188103,0.08785 0.120923,0 0.185002,-0.08785 0.06408,-0.08888 0.06408,-0.255282 0,-0.166398 -0.06408,-0.254248 -0.06408,-0.08888 -0.185002,-0.08888 z m 0,-0.264583 q 0.29869,0 0.466122,0.16123 0.168465,0.161231 0.168465,0.446485 0,0.285255 -0.168465,0.446485 -0.167432,0.161231 -0.466122,0.161231 -0.299724,0 -0.469223,-0.161231 -0.168465,-0.16123 -0.168465,-0.446485 0,-0.285254 0.168465,-0.446485 0.169499,-0.16123 0.469223,-0.16123 z"
           style="font-weight:bold;font-size:2.11667px;line-height:0.3;-inkscape-font-specification:'sans-serif Bold';opacity:0.215582;fill:#57574d"
           id="path891" />
        <path
           d="m 41.874307,15.936363 q -0.12299,0 -0.188103,0.08888 -0.06408,0.08785 -0.06408,0.254248 0,0.166399 0.06408,0.255282 0.06511,0.08785 0.188103,0.08785 0.120923,0 0.185002,-0.08785 0.06408,-0.08888 0.06408,-0.255282 0,-0.166398 -0.06408,-0.254248 -0.06408,-0.08888 -0.185002,-0.08888 z m 0,-0.264583 q 0.29869,0 0.466122,0.16123 0.168465,0.161231 0.168465,0.446485 0,0.285255 -0.168465,0.446485 -0.167432,0.161231 -0.466122,0.161231 -0.299724,0 -0.469223,-0.161231 -0.168465,-0.16123 -0.168465,-0.446485 0,-0.285254 0.168465,-0.446485 0.169499,-0.16123 0.469223,-0.16123 z"
           style="font-weight:bold;font-size:2.11667px;line-height:0.3;-inkscape-font-specification:'sans-serif Bold';opacity:0.215582;fill:#57574d"
           id="path893" />
        <path
           d="m 42.777613,15.249066 h 0.370004 v 0.8754 l 0.425814,-0.424781 h 0.429949 l -0.565341,0.531235 0.609783,0.626319 H 43.59927 L 43.147617,16.37458 v 0.482659 h -0.370004 z"
           style="font-weight:bold;font-size:2.11667px;line-height:0.3;-inkscape-font-specification:'sans-serif Bold';opacity:0.215582;fill:#57574d"
           id="path895" />
        <path
           d="m 44.223521,16.457263 h 0.372071 v 0.399976 h -0.372071 z"
           style="font-weight:bold;font-size:2.11667px;line-height:0.3;-inkscape-font-specification:'sans-serif Bold';opacity:0.215582;fill:#57574d"
           id="path897" />
        <path
           d="m 45.924712,15.735859 v 0.30179 q -0.07545,-0.05168 -0.151929,-0.07648 -0.07545,-0.02481 -0.157097,-0.02481 -0.155029,0 -0.241846,0.09095 -0.08578,0.08992 -0.08578,0.252181 0,0.162265 0.08578,0.253215 0.08682,0.08992 0.241846,0.08992 0.08682,0 0.164332,-0.02584 0.07855,-0.02584 0.144694,-0.07648 v 0.302824 q -0.08682,0.03204 -0.176734,0.04754 -0.08888,0.01654 -0.178801,0.01654 -0.313159,0 -0.489893,-0.160197 -0.176734,-0.161231 -0.176734,-0.447519 0,-0.286287 0.176734,-0.446485 0.176734,-0.16123 0.489893,-0.16123 0.09095,0 0.178801,0.01654 0.08888,0.0155 0.176734,0.04754 z"
           style="font-weight:bold;font-size:2.11667px;line-height:0.3;-inkscape-font-specification:'sans-serif Bold';opacity:0.215582;fill:#57574d"
           id="path899" />
        <path
           d="m 46.794944,15.936363 q -0.12299,0 -0.188103,0.08888 -0.06408,0.08785 -0.06408,0.254248 0,0.166399 0.06408,0.255282 0.06511,0.08785 0.188103,0.08785 0.120923,0 0.185002,-0.08785 0.06408,-0.08888 0.06408,-0.255282 0,-0.166398 -0.06408,-0.254248 -0.06408,-0.08888 -0.185002,-0.08888 z m 0,-0.264583 q 0.29869,0 0.466122,0.16123 0.168466,0.161231 0.168466,0.446485 0,0.285255 -0.168466,0.446485 -0.167432,0.161231 -0.466122,0.161231 -0.299724,0 -0.469223,-0.161231 -0.168465,-0.16123 -0.168465,-0.446485 0,-0.285254 0.168465,-0.446485 0.169499,-0.16123 0.469223,-0.16123 z"
           style="font-weight:bold;font-size:2.11667px;line-height:0.3;-inkscape-font-specification:'sans-serif Bold';opacity:0.215582;fill:#57574d"
           id="path901" />
        <path
           d="m 48.771055,15.891922 q 0.07028,-0.107488 0.166398,-0.163298 0.09715,-0.05684 0.212907,-0.05684 0.199472,0 0.303858,0.12299 0.104387,0.12299 0.104387,0.357601 v 0.704868 h -0.372071 v -0.603582 q 10e-4,-0.01344 10e-4,-0.02791 10e-4,-0.01447 10e-4,-0.04134 0,-0.12299 -0.03617,-0.177768 -0.03617,-0.05581 -0.116789,-0.05581 -0.10542,0 -0.163297,0.08682 -0.05684,0.08682 -0.05891,0.251148 v 0.568442 h -0.372071 v -0.603582 q 0,-0.192236 -0.03307,-0.247014 -0.03307,-0.05581 -0.117822,-0.05581 -0.106454,0 -0.164331,0.08785 -0.05788,0.08682 -0.05788,0.249081 v 0.569475 h -0.372071 v -1.157554 h 0.372071 v 0.169499 q 0.06821,-0.09819 0.156063,-0.147795 0.08888,-0.04961 0.195337,-0.04961 0.11989,0 0.211874,0.05788 0.09198,0.05788 0.139527,0.162265 z"
           style="font-weight:bold;font-size:2.11667px;line-height:0.3;-inkscape-font-specification:'sans-serif Bold';opacity:0.215582;fill:#57574d"
           id="path903" />
      </g>
      <g
         aria-label="bөlme gimarat jobalar sүuret өnerý tүuyndylary"
         id="text2286-8"
         style="font-size:12.7px;line-height:0.4;-inkscape-font-specification:sans-serif;display:inline;fill:#878678;stroke-width:1.05832">
        <path
           d="m 62.867849,9.9844465 q 0.475424,0 0.723471,-0.3472657 0.252181,-0.3472658 0.252181,-1.0087244 0,-0.6614586 -0.252181,-1.0087244 -0.248047,-0.3472657 -0.723471,-0.3472657 -0.475423,0 -0.731738,0.3513999 -0.252181,0.3472657 -0.252181,1.0045902 0,0.6573245 0.252181,1.0087244 0.256315,0.3472657 0.731738,0.3472657 z M 61.88393,6.9872123 q 0.305924,-0.4051434 0.677995,-0.5953128 0.37207,-0.1943034 0.855762,-0.1943034 0.855762,0 1.405599,0.6821291 0.549838,0.6779951 0.549838,1.7487312 0,1.0707361 -0.549838,1.7528656 -0.549837,0.677995 -1.405599,0.677995 -0.483692,0 -0.855762,-0.19017 -0.372071,-0.194303 -0.677995,-0.599446 v 0.669726 H 60.403916 V 4.5067425 h 1.480014 z"
           style="font-weight:bold;font-size:8.46667px;-inkscape-font-specification:'sans-serif Bold';fill:#808000"
           id="path906" />
        <path
           d="m 68.668015,6.1975961 q 1.194759,0 1.864486,0.6449221 0.673861,0.6449221 0.673861,1.7859382 0,1.1410161 -0.673861,1.7859386 -0.669727,0.644922 -1.864486,0.644922 -1.198894,0 -1.876889,-0.644922 -0.673861,-0.6449225 -0.673861,-1.7859386 0,-1.1410161 0.673861,-1.7859382 0.677995,-0.6449221 1.876889,-0.6449221 z m -0.0124,1.0583337 q -0.483691,0 -0.740006,0.3513999 -0.148829,0.2067058 -0.21084,0.5208986 h 1.914095 Q 69.55685,7.8140355 69.403887,7.6073297 69.147572,7.2559298 68.655612,7.2559298 Z M 69.6478,8.9302469 h -1.971973 q 0.04547,0.4506187 0.239779,0.7193362 0.256315,0.3513999 0.740006,0.3513999 0.49196,0 0.748275,-0.3513999 0.198438,-0.2687175 0.243913,-0.7193362 z"
           style="font-weight:bold;font-size:8.46667px;-inkscape-font-specification:'sans-serif Bold';fill:#808000"
           id="path908" />
        <path
           d="m 72.281232,4.5067425 h 1.480013 v 6.4326845 h -1.480013 z"
           style="font-weight:bold;font-size:8.46667px;-inkscape-font-specification:'sans-serif Bold';fill:#808000"
           id="path910" />
        <path
           d="m 79.474595,7.0781628 q 0.281119,-0.4299481 0.665592,-0.6531903 0.388607,-0.2273764 0.851628,-0.2273764 0.797885,0 1.21543,0.4919598 0.417546,0.4919598 0.417546,1.4304042 V 10.939427 H 81.136509 V 8.5251035 q 0.0041,-0.053743 0.0041,-0.1116211 0.0041,-0.057878 0.0041,-0.1653647 0,-0.4919598 -0.144694,-0.711068 -0.144694,-0.2232423 -0.467155,-0.2232423 -0.42168,0 -0.65319,0.3472658 -0.227376,0.3472658 -0.235645,1.0045903 V 10.939427 H 78.155811 V 8.5251035 q 0,-0.7689456 -0.132291,-0.9880538 -0.132292,-0.2232423 -0.47129,-0.2232423 -0.425814,0 -0.657324,0.3513999 -0.231511,0.3472658 -0.231511,0.996322 V 10.939427 H 75.175114 V 6.3092172 h 1.488281 v 0.6779951 q 0.272852,-0.3927411 0.624252,-0.5911787 0.355534,-0.1984375 0.781348,-0.1984375 0.479557,0 0.847494,0.2315105 0.367936,0.2315105 0.558106,0.6490562 z"
           style="font-weight:bold;font-size:8.46667px;-inkscape-font-specification:'sans-serif Bold';fill:#808000"
           id="path912" />
        <path
           d="m 88.627527,8.6119199 v 0.4216799 h -3.460255 q 0.05374,0.5208986 0.376205,0.781348 0.322461,0.2604492 0.901237,0.2604492 0.467155,0 0.954981,-0.1364258 0.49196,-0.1405599 1.008724,-0.4216798 v 1.1410156 q -0.525032,0.198438 -1.050065,0.297657 -0.525033,0.103353 -1.050066,0.103353 -1.256771,0 -1.955437,-0.636654 -0.694531,-0.6407882 -0.694531,-1.7942066 0,-1.1327478 0.682129,-1.7818041 0.686263,-0.6490562 1.885157,-0.6490562 1.091407,0 1.744597,0.6573244 0.657324,0.6573245 0.657324,1.7569994 z M 87.106173,8.1199601 q 0,-0.4216798 -0.248047,-0.6779951 -0.243913,-0.2604493 -0.640788,-0.2604493 -0.429948,0 -0.698666,0.2439129 -0.268718,0.2397787 -0.334863,0.6945315 z"
           style="font-weight:bold;font-size:8.46667px;-inkscape-font-specification:'sans-serif Bold';fill:#808000"
           id="path914" />
        <path
           d="m 95.845693,10.153945 q -0.305925,0.405144 -0.673861,0.595313 -0.367936,0.190169 -0.851628,0.190169 -0.847494,0 -1.401465,-0.665592 -0.553972,-0.6697272 -0.553972,-1.7032562 0,-1.0376632 0.553972,-1.6991218 0.553971,-0.6655927 1.401465,-0.6655927 0.483692,0 0.851628,0.1901693 0.367936,0.1901694 0.673861,0.5994469 V 6.3092172 h 1.488282 v 4.1630548 q 0,1.116212 -0.706934,1.703256 -0.7028,0.591179 -2.042253,0.591179 -0.434083,0 -0.839226,-0.06615 -0.405143,-0.06615 -0.814421,-0.202572 v -1.153418 q 0.388607,0.223242 0.760677,0.330729 0.372071,0.111621 0.748275,0.111621 0.727605,0 1.066602,-0.318327 0.338998,-0.318327 0.338998,-0.996322 z M 94.870042,7.2724663 q -0.458887,0 -0.715203,0.3389975 -0.256315,0.3389975 -0.256315,0.959115 0,0.6366539 0.248047,0.9673832 0.248047,0.3265952 0.723471,0.3265952 0.463021,0 0.719336,-0.3389976 0.256315,-0.3389975 0.256315,-0.9549808 0,-0.6201175 -0.256315,-0.959115 -0.256315,-0.3389975 -0.719336,-0.3389975 z"
           style="font-weight:bold;font-size:8.46667px;-inkscape-font-specification:'sans-serif Bold';fill:#808000"
           id="path916" />
        <path
           d="m 98.756112,6.3092172 h 1.480018 v 4.6302098 h -1.480018 z m 0,-1.8024747 h 1.480018 v 1.207162 h -1.480018 z"
           style="font-weight:bold;font-size:8.46667px;-inkscape-font-specification:'sans-serif Bold';fill:#808000"
           id="path918" />
        <path
           d="m 105.94947,7.0781628 q 0.28112,-0.4299481 0.6656,-0.6531903 0.3886,-0.2273764 0.85162,-0.2273764 0.79789,0 1.21543,0.4919598 0.41755,0.4919598 0.41755,1.4304042 v 2.8194669 h -1.48828 V 8.5251035 q 0.004,-0.053743 0.004,-0.1116211 0.004,-0.057878 0.004,-0.1653647 0,-0.4919598 -0.1447,-0.711068 -0.14469,-0.2232423 -0.46715,-0.2232423 -0.42168,0 -0.65319,0.3472658 -0.22738,0.3472658 -0.23565,1.0045903 v 2.2737635 h -1.48828 V 8.5251035 q 0,-0.7689456 -0.13229,-0.9880538 -0.13229,-0.2232423 -0.47129,-0.2232423 -0.42581,0 -0.65732,0.3513999 -0.23152,0.3472658 -0.23152,0.996322 v 2.2778977 h -1.48828 V 6.3092172 h 1.48828 v 0.6779951 q 0.27286,-0.3927411 0.62426,-0.5911787 0.35553,-0.1984375 0.78134,-0.1984375 0.47956,0 0.8475,0.2315105 0.36793,0.2315105 0.5581,0.6490562 z"
           style="font-weight:bold;font-size:8.46667px;-inkscape-font-specification:'sans-serif Bold';fill:#808000"
           id="path920" />
        <path
           d="m 112.55579,8.8558328 q -0.46302,0 -0.69866,0.1570964 -0.23151,0.1570964 -0.23151,0.463021 0,0.2811199 0.18603,0.4423505 0.19017,0.1570963 0.52503,0.1570963 0.41755,0 0.7028,-0.2976563 0.28526,-0.3017905 0.28526,-0.7524091 V 8.8558328 Z m 2.26136,-0.5581057 v 2.6416999 h -1.49241 v -0.686263 q -0.29766,0.42168 -0.66973,0.615983 -0.37207,0.19017 -0.90537,0.19017 -0.71934,0 -1.16996,-0.417546 -0.44648,-0.42168 -0.44648,-1.0914067 0,-0.8144209 0.55811,-1.1947596 0.56224,-0.3803387 1.76113,-0.3803387 h 0.8723 V 7.8595108 q 0,-0.3513999 -0.27699,-0.5126304 -0.27698,-0.1653647 -0.86403,-0.1653647 -0.47542,0 -0.8847,0.095085 -0.40928,0.095085 -0.76068,0.285254 v -1.128614 q 0.47543,-0.1157553 0.95498,-0.1736329 0.47956,-0.062012 0.95912,-0.062012 1.25264,0 1.80661,0.4960939 0.5581,0.4919598 0.5581,1.6040374 z"
           style="font-weight:bold;font-size:8.46667px;-inkscape-font-specification:'sans-serif Bold';fill:#808000"
           id="path922" />
        <path
           d="m 119.6334,7.5701226 q -0.1943,-0.09095 -0.38861,-0.1322917 -0.19017,-0.045475 -0.38447,-0.045475 -0.57051,0 -0.88057,0.3679363 -0.30592,0.3638022 -0.30592,1.0459314 v 2.1332034 h -1.48002 V 6.3092172 h 1.48002 v 0.7606774 q 0.28525,-0.4547528 0.65319,-0.6614586 0.37207,-0.2108399 0.88883,-0.2108399 0.0744,0 0.16123,0.00827 0.0868,0.00413 0.25218,0.024805 z"
           style="font-weight:bold;font-size:8.46667px;-inkscape-font-specification:'sans-serif Bold';fill:#808000"
           id="path924" />
        <path
           d="m 122.4446,8.8558328 q -0.46302,0 -0.69867,0.1570964 -0.23151,0.1570964 -0.23151,0.463021 0,0.2811199 0.18604,0.4423505 0.19017,0.1570963 0.52503,0.1570963 0.41755,0 0.7028,-0.2976563 0.28525,-0.3017905 0.28525,-0.7524091 V 8.8558328 Z m 2.26136,-0.5581057 v 2.6416999 h -1.49242 v -0.686263 q -0.29765,0.42168 -0.66972,0.615983 -0.37207,0.19017 -0.90538,0.19017 -0.71933,0 -1.16995,-0.417546 -0.44648,-0.42168 -0.44648,-1.0914067 0,-0.8144209 0.5581,-1.1947596 0.56224,-0.3803387 1.76113,-0.3803387 h 0.8723 V 7.8595108 q 0,-0.3513999 -0.27698,-0.5126304 -0.27699,-0.1653647 -0.86403,-0.1653647 -0.47543,0 -0.8847,0.095085 -0.40928,0.095085 -0.76068,0.285254 v -1.128614 q 0.47542,-0.1157553 0.95498,-0.1736329 0.47956,-0.062012 0.95911,-0.062012 1.25264,0 1.80661,0.4960939 0.55811,0.4919598 0.55811,1.6040374 z"
           style="font-weight:bold;font-size:8.46667px;-inkscape-font-specification:'sans-serif Bold';fill:#808000"
           id="path926" />
        <path
           d="m 127.69906,4.9945682 v 1.314649 h 1.52549 V 7.367551 h -1.52549 v 1.9637052 q 0,0.322461 0.12816,0.4382163 0.12815,0.1116211 0.50849,0.1116211 h 0.76068 v 1.0583334 h -1.26917 q -0.87644,0 -1.24437,-0.363802 -0.3638,-0.367936 -0.3638,-1.2443688 V 7.367551 h -0.73588 V 6.3092172 h 0.73588 v -1.314649 z"
           style="font-weight:bold;font-size:8.46667px;-inkscape-font-specification:'sans-serif Bold';fill:#808000"
           id="path928" />
        <path
           d="m 133.07755,6.3092172 h 1.48001 v 4.5475278 q 0,0.930176 -0.44648,1.418002 -0.44649,0.49196 -1.29398,0.49196 h -0.73174 v -0.971518 h 0.25631 q 0.42168,0 0.57878,-0.190169 0.1571,-0.190169 0.1571,-0.748275 z m 0,-1.8024747 h 1.48001 v 1.207162 h -1.48001 z"
           style="font-weight:bold;font-size:8.46667px;-inkscape-font-specification:'sans-serif Bold';fill:#808000"
           id="path930" />
        <path
           d="m 138.18318,7.2559298 q -0.49196,0 -0.75241,0.355534 -0.25631,0.3513999 -0.25631,1.0169926 0,0.6655927 0.25631,1.0211267 0.26045,0.3513999 0.75241,0.3513999 0.48369,0 0.74001,-0.3513999 0.25631,-0.355534 0.25631,-1.0211267 0,-0.6655927 -0.25631,-1.0169926 -0.25632,-0.355534 -0.74001,-0.355534 z m 0,-1.0583337 q 1.19476,0 1.86449,0.6449221 0.67386,0.6449221 0.67386,1.7859382 0,1.1410161 -0.67386,1.7859386 -0.66973,0.644922 -1.86449,0.644922 -1.19889,0 -1.87689,-0.644922 -0.67386,-0.6449225 -0.67386,-1.7859386 0,-1.1410161 0.67386,-1.7859382 0.678,-0.6449221 1.87689,-0.6449221 z"
           style="font-weight:bold;font-size:8.46667px;-inkscape-font-specification:'sans-serif Bold';fill:#808000"
           id="path932" />
        <path
           d="m 144.26033,9.9844465 q 0.47542,0 0.72347,-0.3472657 0.25218,-0.3472658 0.25218,-1.0087244 0,-0.6614586 -0.25218,-1.0087244 -0.24805,-0.3472657 -0.72347,-0.3472657 -0.47542,0 -0.73174,0.3513999 -0.25218,0.3472657 -0.25218,1.0045902 0,0.6573245 0.25218,1.0087244 0.25632,0.3472657 0.73174,0.3472657 z m -0.98392,-2.9972342 q 0.30592,-0.4051434 0.67799,-0.5953128 0.37207,-0.1943034 0.85577,-0.1943034 0.85576,0 1.4056,0.6821291 0.54983,0.6779951 0.54983,1.7487312 0,1.0707361 -0.54983,1.7528656 -0.54984,0.677995 -1.4056,0.677995 -0.4837,0 -0.85577,-0.19017 -0.37207,-0.194303 -0.67799,-0.599446 v 0.669726 H 141.7964 V 4.5067425 h 1.48001 z"
           style="font-weight:bold;font-size:8.46667px;-inkscape-font-specification:'sans-serif Bold';fill:#808000"
           id="path934" />
        <path
           d="m 149.93234,8.8558328 q -0.46302,0 -0.69867,0.1570964 -0.23151,0.1570964 -0.23151,0.463021 0,0.2811199 0.18604,0.4423505 0.19017,0.1570963 0.52503,0.1570963 0.41754,0 0.7028,-0.2976563 0.28525,-0.3017905 0.28525,-0.7524091 V 8.8558328 Z m 2.26136,-0.5581057 v 2.6416999 h -1.49242 v -0.686263 q -0.29765,0.42168 -0.66972,0.615983 -0.37207,0.19017 -0.90538,0.19017 -0.71933,0 -1.16995,-0.417546 -0.44649,-0.42168 -0.44649,-1.0914067 0,-0.8144209 0.55811,-1.1947596 0.56224,-0.3803387 1.76113,-0.3803387 h 0.8723 V 7.8595108 q 0,-0.3513999 -0.27698,-0.5126304 -0.27699,-0.1653647 -0.86403,-0.1653647 -0.47543,0 -0.8847,0.095085 -0.40928,0.095085 -0.76068,0.285254 v -1.128614 q 0.47542,-0.1157553 0.95498,-0.1736329 0.47956,-0.062012 0.95911,-0.062012 1.25264,0 1.80661,0.4960939 0.55811,0.4919598 0.55811,1.6040374 z"
           style="font-weight:bold;font-size:8.46667px;-inkscape-font-specification:'sans-serif Bold';fill:#808000"
           id="path936" />
        <path
           d="m 153.57036,4.5067425 h 1.48001 v 6.4326845 h -1.48001 z"
           style="font-weight:bold;font-size:8.46667px;-inkscape-font-specification:'sans-serif Bold';fill:#808000"
           id="path938" />
        <path
           d="m 158.54784,8.8558328 q -0.46302,0 -0.69867,0.1570964 -0.23151,0.1570964 -0.23151,0.463021 0,0.2811199 0.18604,0.4423505 0.19017,0.1570963 0.52503,0.1570963 0.41755,0 0.7028,-0.2976563 0.28525,-0.3017905 0.28525,-0.7524091 V 8.8558328 Z m 2.26136,-0.5581057 v 2.6416999 h -1.49242 v -0.686263 q -0.29765,0.42168 -0.66972,0.615983 -0.37207,0.19017 -0.90537,0.19017 -0.71934,0 -1.16996,-0.417546 -0.44648,-0.42168 -0.44648,-1.0914067 0,-0.8144209 0.5581,-1.1947596 0.56224,-0.3803387 1.76114,-0.3803387 h 0.87229 V 7.8595108 q 0,-0.3513999 -0.27698,-0.5126304 -0.27699,-0.1653647 -0.86403,-0.1653647 -0.47543,0 -0.8847,0.095085 -0.40928,0.095085 -0.76068,0.285254 v -1.128614 q 0.47542,-0.1157553 0.95498,-0.1736329 0.47956,-0.062012 0.95912,-0.062012 1.25263,0 1.8066,0.4960939 0.55811,0.4919598 0.55811,1.6040374 z"
           style="font-weight:bold;font-size:8.46667px;-inkscape-font-specification:'sans-serif Bold';fill:#808000"
           id="path940" />
        <path
           d="m 165.62545,7.5701226 q -0.19431,-0.09095 -0.38861,-0.1322917 -0.19017,-0.045475 -0.38447,-0.045475 -0.57051,0 -0.88057,0.3679363 -0.30593,0.3638022 -0.30593,1.0459314 v 2.1332034 h -1.48001 V 6.3092172 h 1.48001 v 0.7606774 q 0.28526,-0.4547528 0.65319,-0.6614586 0.37207,-0.2108399 0.88884,-0.2108399 0.0744,0 0.16123,0.00827 0.0868,0.00413 0.25218,0.024805 z"
           style="font-weight:bold;font-size:8.46667px;-inkscape-font-specification:'sans-serif Bold';fill:#808000"
           id="path942" />
      </g>
      <path
         style="fill:none;stroke:#878678;stroke-width:0.222007px;stroke-linecap:butt;stroke-linejoin:miter;stroke-opacity:1"
         d="m 51.047293,4.5974853 c 0,12.4585497 0,12.5894057 0,12.5894057"
         id="path111900" />
      <path
         style="fill:none;stroke:#808000;stroke-width:0.865;stroke-linecap:butt;stroke-linejoin:miter;stroke-miterlimit:4;stroke-dasharray:none;stroke-opacity:1"
         d="M 92.768524,5.6590695 C 94.318235,4.4037182 95.60942,5.3343112 96.873268,4.7428961 v 0"
         id="path8394"
         sodipodi:nodetypes="ccc" />
    </g>
    <text
       xml:space="preserve"
       style="font-style:normal;font-variant:normal;font-weight:normal;font-stretch:normal;font-size:12.7px;line-height:0.4;font-family:sans-serif;-inkscape-font-specification:sans-serif;display:inline;opacity:1;fill:#878678;fill-opacity:1;stroke:none;stroke-width:1.05832;stroke-miterlimit:4;stroke-dasharray:none"
       x="60.15527"
       y="16.3125"
       id="text2286-8-1"
       inkscape:export-filename="/home/m/Жүктемелер/rect154481.png"
       inkscape:export-xdpi="96"
       inkscape:export-ydpi="96"><tspan
         sodipodi:role="line"
         x="60.15527"
         y="16.3125"
         style="font-style:normal;font-variant:normal;font-weight:normal;font-stretch:normal;font-size:4.23332px;font-family:sans-serif;-inkscape-font-specification:sans-serif;fill:#808000;fill-opacity:1;stroke-width:1.05832;stroke-miterlimit:4;stroke-dasharray:none"
         id="tspan73232-0">sůuret өnerý tūuyndylary</tspan></text>
  </g>
</svg>
