<?xml version="1.0" encoding="UTF-8" standalone="no"?>
<!-- Created with Inkscape (http://www.inkscape.org/) -->

<svg
   width="440"
   height="76.358002"
   viewBox="0 0 116.41666 20.203055"
   version="1.1"
   id="svg4436"
   inkscape:version="1.1.2 (0a00cf5339, 2022-02-04)"
   sodipodi:docname="taꞑba-tәbýiḡat.svg"
   xmlns:inkscape="http://www.inkscape.org/namespaces/inkscape"
   xmlns:sodipodi="http://sodipodi.sourceforge.net/DTD/sodipodi-0.dtd"
   xmlns="http://www.w3.org/2000/svg"
   xmlns:svg="http://www.w3.org/2000/svg">
  <sodipodi:namedview
     id="namedview4438"
     pagecolor="#ffffff"
     bordercolor="#666666"
     borderopacity="1.0"
     inkscape:pageshadow="2"
     inkscape:pageopacity="0.0"
     inkscape:pagecheckerboard="0"
     inkscape:document-units="mm"
     showgrid="false"
     units="px"
     inkscape:zoom="1.0729879"
     inkscape:cx="291.70879"
     inkscape:cy="57.316583"
     inkscape:window-width="1600"
     inkscape:window-height="848"
     inkscape:window-x="0"
     inkscape:window-y="0"
     inkscape:window-maximized="1"
     inkscape:current-layer="layer1"
     showguides="true"
     inkscape:guide-bbox="true" />
  <defs
     id="defs4433">
    <style
       type="text/css"
       id="style4624"><![CDATA[
    .str0 {stroke:#6B470F;stroke-width:341.67;stroke-miterlimit:22.9256}
    .fil0 {fill:none}
    .fil1 {fill:#6B470F}
   ]]></style>
  </defs>
  <g
     inkscape:label="Layer 1"
     inkscape:groupmode="layer"
     id="layer1">
    <rect
       style="display:inline;fill:none;fill-opacity:1;stroke:none;stroke-width:1.48661;stroke-miterlimit:4;stroke-dasharray:none;stroke-opacity:1"
       id="rect154481"
       width="121.44375"
       height="20.203054"
       x="0.23386478"
       y="0.23386478"
       inkscape:export-filename="/home/m/Жүктемелер/rect154481.png"
       inkscape:export-xdpi="96"
       inkscape:export-ydpi="96" />
    <path
       d="m 12.351096,4.3713196 c -5.6500089,0.89196 -7.5332059,4.4408 -8.0885089,6.5223204 -0.485671,1.80392 -0.346799,4.7678 3.687329,4.86704 1.308522,0 5.1148109,-0.008 8.2368899,0 3.876033,0.008 4.956378,-3.09264 4.867267,-5.75912 -0.16964,-4.8415604 -4.527332,-6.2833204 -8.702977,-5.6302404 z"
       style="display:inline;fill:none;stroke:#878678;stroke-width:2.25002;stroke-linecap:butt;stroke-linejoin:miter;stroke-dasharray:none;stroke-opacity:1"
       id="path982-7"
       inkscape:connector-curvature="0"
       inkscape:export-filename="/home/m/Жүктемелер/rect154481.png"
       inkscape:export-xdpi="96"
       inkscape:export-ydpi="96" />
    <path
       d="m 7.2752291,11.23048 c 0,-1.12436 0.918107,-2.0425604 2.042477,-2.0425604 1.1244779,0 2.0425809,0.9182004 2.0425809,2.0425604 0,1.1244 -0.918103,2.0426 -2.0425809,2.0426 -1.12437,0 -2.042477,-0.9182 -2.042477,-2.0426 z"
       style="display:inline;fill:#878678;fill-opacity:1;fill-rule:evenodd;stroke-width:1.05832"
       id="path984-5"
       inkscape:connector-curvature="0"
       inkscape:export-filename="/home/m/Жүктемелер/rect154481.png"
       inkscape:export-xdpi="96"
       inkscape:export-ydpi="96" />
    <text
       xml:space="preserve"
       style="font-style:normal;font-variant:normal;font-weight:normal;font-stretch:normal;font-size:12.7px;line-height:0;font-family:sans-serif;-inkscape-font-specification:sans-serif;display:inline;fill:#878678;fill-opacity:1;stroke:none;stroke-width:1.05832;stroke-miterlimit:4;stroke-dasharray:none"
       x="24.207142"
       y="9.5442657"
       id="text2286"
       inkscape:export-filename="/home/m/Жүктемелер/rect154481.png"
       inkscape:export-xdpi="96"
       inkscape:export-ydpi="96"><tspan
         style="font-style:normal;font-variant:normal;font-weight:bold;font-stretch:normal;font-size:6.35px;line-height:0.7;font-family:sans-serif;-inkscape-font-specification:'sans-serif Bold';fill:#878678;fill-opacity:1;stroke-width:1.05832;stroke-miterlimit:4;stroke-dasharray:none"
         sodipodi:role="line"
         id="tspan56229"
         x="24.207142"
         y="9.5442657">Өner</tspan><tspan
         style="font-style:normal;font-variant:normal;font-weight:bold;font-stretch:normal;font-size:3.52778px;line-height:0.6;font-family:sans-serif;-inkscape-font-specification:'sans-serif Bold';fill:#878678;fill-opacity:1;stroke-width:1.05832;stroke-miterlimit:4;stroke-dasharray:none"
         sodipodi:role="line"
         id="tspan28353"
         x="24.207142"
         y="13.416277">kөrmesý</tspan><tspan
         sodipodi:role="line"
         x="24.207142"
         y="16.857239"
         style="font-style:normal;font-variant:normal;font-weight:bold;font-stretch:normal;font-size:2.11667px;line-height:0.3;font-family:sans-serif;-inkscape-font-specification:'sans-serif Bold';opacity:0.215582;fill:#57574d;fill-opacity:1;stroke-width:1.05832;stroke-miterlimit:4;stroke-dasharray:none"
         id="tspan2257">sk-joba@outlook.com</tspan></text>
    <g
       id="Layer1063-5"
       transform="matrix(0.26458333,0,0,0.26458333,29.533716,-60.207453)">
      <path
         d="m 95.1111,341.1139 v 9.6001 h 9.6001 v -9.6001 z"
         style="fill:#6b470f;fill-rule:evenodd;stroke:#ffcb00;stroke-width:0.5669;stroke-linecap:butt;stroke-linejoin:miter;stroke-dasharray:none"
         id="path1115-0"
         inkscape:connector-curvature="0" />
      <path
         d="m 95.1111,328.5139 v 9.6001 h 9.6001 v -9.6001 z"
         style="fill:#c6b93a;fill-rule:evenodd;stroke:#ffec00;stroke-width:0.5669;stroke-linecap:butt;stroke-linejoin:miter;stroke-dasharray:none"
         id="path1117-8"
         inkscape:connector-curvature="0" />
      <path
         d="m 95.1111,365.9981 v 9.6001 h 9.6001 v -9.6001 z"
         style="fill:#b1ad81;fill-rule:evenodd;stroke:#ffcb00;stroke-width:0.5669;stroke-linecap:butt;stroke-linejoin:miter;stroke-dasharray:none"
         id="path1119-0"
         inkscape:connector-curvature="0" />
      <path
         d="m 95.1111,353.6654 v 9.6001 h 9.6001 v -9.6001 z"
         style="fill:#878678;fill-rule:evenodd;stroke:#ffcb00;stroke-width:0.5669;stroke-linecap:butt;stroke-linejoin:miter;stroke-dasharray:none"
         id="path1121-4"
         inkscape:connector-curvature="0" />
      <path
         d="m 95.0074,316.6662 v 9.6001 h 9.6001 v -9.6001 z"
         style="fill:#57574d;fill-rule:evenodd;stroke:#ffcb00;stroke-width:0.5669;stroke-linecap:butt;stroke-linejoin:miter;stroke-dasharray:none"
         id="path1123-1"
         inkscape:connector-curvature="0" />
    </g>
    <g
       aria-label="tәbýigat sүuret өnerý tүuyndylary"
       id="text2286-8"
       style="font-size:12.7px;line-height:0.4;-inkscape-font-specification:sans-serif;display:inline;fill:#878678;stroke-width:1.05832">
      <path
         d="m 62.020356,4.9945682 v 1.314649 h 1.525489 V 7.367551 h -1.525489 v 1.9637052 q 0,0.322461 0.128157,0.4382163 0.128158,0.1116211 0.508497,0.1116211 h 0.760677 v 1.0583334 h -1.269174 q -0.876432,0 -1.244369,-0.363802 -0.363802,-0.367936 -0.363802,-1.2443688 V 7.367551 H 59.804469 V 6.3092172 h 0.735873 v -1.314649 z"
         style="font-weight:bold;font-size:8.46667px;-inkscape-font-specification:'sans-serif Bold';fill:#808000"
         id="path116565" />
      <path
         d="M 64.10395,8.6449929 V 8.223313 h 3.460256 Q 67.510462,7.7024144 67.188001,7.441965 66.86554,7.1815157 66.286764,7.1815157 q -0.467155,0 -0.959115,0.14056 -0.487826,0.1364258 -1.004591,0.4175457 V 6.5986053 q 0.525033,-0.1984375 1.050066,-0.2976563 0.525033,-0.1033529 1.050065,-0.1033529 1.256772,0 1.951303,0.640788 0.698666,0.6366539 0.698666,1.7900723 0,1.1327479 -0.686263,1.7818036 -0.682129,0.649057 -1.881023,0.649057 -1.091407,0 -1.748731,-0.657325 Q 64.10395,9.7446678 64.10395,8.6449929 Z m 1.521355,0.4919598 q 0,0.4216799 0.243913,0.6821292 0.248047,0.2563151 0.644922,0.2563151 0.429948,0 0.698666,-0.2397787 0.268717,-0.2439128 0.334863,-0.6986656 z"
         style="font-weight:bold;font-size:8.46667px;-inkscape-font-specification:'sans-serif Bold';fill:#808000"
         id="path116567" />
      <path
         d="m 72.657436,9.9844465 q 0.475424,0 0.723471,-0.3472657 0.252181,-0.3472658 0.252181,-1.0087244 0,-0.6614586 -0.252181,-1.0087244 -0.248047,-0.3472657 -0.723471,-0.3472657 -0.475423,0 -0.731738,0.3513999 -0.252181,0.3472657 -0.252181,1.0045902 0,0.6573245 0.252181,1.0087244 0.256315,0.3472657 0.731738,0.3472657 z M 71.673517,6.9872123 q 0.305924,-0.4051434 0.677995,-0.5953128 0.37207,-0.1943034 0.855762,-0.1943034 0.855762,0 1.405599,0.6821291 0.549838,0.6779951 0.549838,1.7487312 0,1.0707361 -0.549838,1.7528656 -0.549837,0.677995 -1.405599,0.677995 -0.483692,0 -0.855762,-0.19017 -0.372071,-0.194303 -0.677995,-0.599446 v 0.669726 H 70.193503 V 4.5067425 h 1.480014 z"
         style="font-weight:bold;font-size:8.46667px;-inkscape-font-specification:'sans-serif Bold';fill:#808000"
         id="path116569" />
      <path
         d="m 75.646404,6.3092172 h 1.480013 l 1.244369,3.1419283 1.058334,-3.1419283 h 1.480014 l -1.947169,5.0684268 q -0.293522,0.773079 -0.686263,1.079004 -0.388607,0.310059 -1.029395,0.310059 h -0.855762 v -0.971518 h 0.463021 q 0.376204,0 0.545703,-0.119889 0.173633,-0.119889 0.268718,-0.429948 l 0.04134,-0.128158 z M 78.862746,4.167745 h 1.169955 l -1.525489,1.5544277 h -0.810287 z"
         style="font-weight:bold;font-size:8.46667px;-inkscape-font-specification:'sans-serif Bold';fill:#808000"
         id="path116571" />
      <path
         d="m 81.773164,6.3092172 h 1.480013 v 4.6302098 h -1.480013 z m 0,-1.8024747 h 1.480013 v 1.207162 h -1.480013 z"
         style="font-weight:bold;font-size:8.46667px;-inkscape-font-specification:'sans-serif Bold';fill:#808000"
         id="path116573" />
      <path
         d="m 87.825509,10.153945 q -0.305924,0.405144 -0.673861,0.595313 -0.367936,0.190169 -0.851627,0.190169 -0.847494,0 -1.401466,-0.665592 -0.553971,-0.6697272 -0.553971,-1.7032562 0,-1.0376632 0.553971,-1.6991218 0.553972,-0.6655927 1.401466,-0.6655927 0.483691,0 0.851627,0.1901693 0.367937,0.1901694 0.673861,0.5994469 V 6.3092172 h 1.488282 v 4.1630548 q 0,1.116212 -0.706934,1.703256 -0.702799,0.591179 -2.042253,0.591179 -0.434082,0 -0.839226,-0.06615 -0.405143,-0.06615 -0.814421,-0.202572 v -1.153418 q 0.388607,0.223242 0.760678,0.330729 0.37207,0.111621 0.748275,0.111621 0.727604,0 1.066602,-0.318327 0.338997,-0.318327 0.338997,-0.996322 z M 86.849858,7.2724663 q -0.458887,0 -0.715202,0.3389975 -0.256315,0.3389975 -0.256315,0.959115 0,0.6366539 0.248047,0.9673832 0.248047,0.3265952 0.72347,0.3265952 0.463021,0 0.719336,-0.3389976 0.256315,-0.3389975 0.256315,-0.9549808 0,-0.6201175 -0.256315,-0.959115 -0.256315,-0.3389975 -0.719336,-0.3389975 z"
         style="font-weight:bold;font-size:8.46667px;-inkscape-font-specification:'sans-serif Bold';fill:#808000"
         id="path116575" />
      <path
         d="m 92.811255,8.8558328 q -0.463021,0 -0.698666,0.1570964 -0.23151,0.1570964 -0.23151,0.463021 0,0.2811199 0.186035,0.4423505 0.190169,0.1570963 0.525033,0.1570963 0.417545,0 0.702799,-0.2976563 Q 93.5802,9.4759502 93.5802,9.0253316 V 8.8558328 Z M 95.072616,8.2977271 V 10.939427 H 93.5802 v -0.686263 q -0.297656,0.42168 -0.669726,0.615983 -0.372071,0.19017 -0.905372,0.19017 -0.719336,0 -1.169955,-0.417546 -0.446484,-0.42168 -0.446484,-1.0914067 0,-0.8144209 0.558105,-1.1947596 0.56224,-0.3803387 1.761134,-0.3803387 H 93.5802 V 7.8595108 q 0,-0.3513999 -0.276985,-0.5126304 -0.276986,-0.1653647 -0.864031,-0.1653647 -0.475423,0 -0.884701,0.095085 -0.409277,0.095085 -0.760677,0.285254 v -1.128614 q 0.475423,-0.1157553 0.954981,-0.1736329 0.479557,-0.062012 0.959115,-0.062012 1.252637,0 1.806609,0.4960939 0.558105,0.4919598 0.558105,1.6040374 z"
         style="font-weight:bold;font-size:8.46667px;-inkscape-font-specification:'sans-serif Bold';fill:#808000"
         id="path116577" />
      <path
         d="m 98.065716,4.9945682 v 1.314649 h 1.525489 V 7.367551 h -1.525489 v 1.9637052 q 0,0.322461 0.128158,0.4382163 0.128157,0.1116211 0.508496,0.1116211 h 0.760677 v 1.0583334 h -1.269173 q -0.876433,0 -1.244369,-0.363802 -0.363802,-0.367936 -0.363802,-1.2443688 V 7.367551 H 95.84983 V 6.3092172 h 0.735873 v -1.314649 z"
         style="font-weight:bold;font-size:8.46667px;-inkscape-font-specification:'sans-serif Bold';fill:#808000"
         id="path116579" />
      <text
         xml:space="preserve"
         style="font-style:normal;font-variant:normal;font-weight:normal;font-stretch:normal;font-size:12.7px;line-height:0.4;font-family:sans-serif;-inkscape-font-specification:sans-serif;display:inline;opacity:1;fill:#878678;fill-opacity:1;stroke:none;stroke-width:1.05832;stroke-miterlimit:4;stroke-dasharray:none"
         x="59.676682"
         y="16.822006"
         id="text2286-8-1"
         inkscape:export-filename="/home/m/Жүктемелер/rect154481.png"
         inkscape:export-xdpi="96"
         inkscape:export-ydpi="96"><tspan
           sodipodi:role="line"
           x="59.676682"
           y="16.822006"
           style="font-style:normal;font-variant:normal;font-weight:normal;font-stretch:normal;font-size:4.23332px;font-family:sans-serif;-inkscape-font-specification:sans-serif;fill:#808000;fill-opacity:1;stroke-width:1.05832;stroke-miterlimit:4;stroke-dasharray:none"
           id="tspan73232-0">sůuret өnerý tūuyndylary</tspan></text>
    </g>
    <path
       style="fill:none;stroke:#808000;stroke-width:0.865;stroke-linecap:butt;stroke-linejoin:miter;stroke-miterlimit:4;stroke-dasharray:none;stroke-opacity:1"
       d="m 84.718297,5.47914 c 1.549711,-1.2553513 2.840896,-0.3247583 4.104744,-0.9161734 v 0"
       id="path8394"
       sodipodi:nodetypes="ccc" />
    <path
       style="fill:none;stroke:#878678;stroke-width:0.222007px;stroke-linecap:butt;stroke-linejoin:miter;stroke-opacity:1"
       d="m 51.047293,4.5974853 c 0,12.4585497 0,12.5894057 0,12.5894057"
       id="path111900" />
  </g>
</svg>
