<?xml version="1.0" encoding="UTF-8" standalone="no"?>
<!-- Created with Inkscape (http://www.inkscape.org/) -->

<svg
   width="650"
   height="76.358002"
   viewBox="0 0 171.97917 20.203055"
   version="1.1"
   id="svg4436"
   inkscape:version="1.1.2 (0a00cf5339, 2022-02-04)"
   sodipodi:docname="taңba-kalyptalgan keskinder.svg"
   xmlns:inkscape="http://www.inkscape.org/namespaces/inkscape"
   xmlns:sodipodi="http://sodipodi.sourceforge.net/DTD/sodipodi-0.dtd"
   xmlns="http://www.w3.org/2000/svg"
   xmlns:svg="http://www.w3.org/2000/svg">
  <sodipodi:namedview
     id="namedview4438"
     pagecolor="#ffffff"
     bordercolor="#666666"
     borderopacity="1.0"
     inkscape:pageshadow="2"
     inkscape:pageopacity="0.0"
     inkscape:pagecheckerboard="0"
     inkscape:document-units="mm"
     showgrid="false"
     units="px"
     inkscape:zoom="3.7726426"
     inkscape:cx="219.73987"
     inkscape:cy="56.326566"
     inkscape:window-width="1600"
     inkscape:window-height="848"
     inkscape:window-x="0"
     inkscape:window-y="0"
     inkscape:window-maximized="1"
     inkscape:current-layer="layer1"
     showguides="true"
     inkscape:guide-bbox="true" />
  <defs
     id="defs4433">
    <style
       type="text/css"
       id="style4624"><![CDATA[
    .str0 {stroke:#6B470F;stroke-width:341.67;stroke-miterlimit:22.9256}
    .fil0 {fill:none}
    .fil1 {fill:#6B470F}
   ]]></style>
  </defs>
  <g
     inkscape:label="Layer 1"
     inkscape:groupmode="layer"
     id="layer1">
    <rect
       style="display:inline;fill:none;fill-opacity:1;stroke:none;stroke-width:1.48661;stroke-miterlimit:4;stroke-dasharray:none;stroke-opacity:1"
       id="rect154481"
       width="121.44375"
       height="20.203054"
       x="0.23386478"
       y="0.23386478"
       inkscape:export-filename="/home/m/Жүктемелер/rect154481.png"
       inkscape:export-xdpi="96"
       inkscape:export-ydpi="96" />
    <path
       d="m 12.351096,4.3713196 c -5.6500089,0.89196 -7.5332059,4.4408 -8.0885089,6.5223204 -0.485671,1.80392 -0.346799,4.7678 3.687329,4.86704 1.308522,0 5.1148109,-0.008 8.2368899,0 3.876033,0.008 4.956378,-3.09264 4.867267,-5.75912 -0.16964,-4.8415604 -4.527332,-6.2833204 -8.702977,-5.6302404 z"
       style="display:inline;fill:none;stroke:#878678;stroke-width:2.25002;stroke-linecap:butt;stroke-linejoin:miter;stroke-dasharray:none;stroke-opacity:1"
       id="path982-7"
       inkscape:connector-curvature="0"
       inkscape:export-filename="/home/m/Жүктемелер/rect154481.png"
       inkscape:export-xdpi="96"
       inkscape:export-ydpi="96" />
    <path
       d="m 7.2752291,11.23048 c 0,-1.12436 0.918107,-2.0425604 2.042477,-2.0425604 1.1244779,0 2.0425809,0.9182004 2.0425809,2.0425604 0,1.1244 -0.918103,2.0426 -2.0425809,2.0426 -1.12437,0 -2.042477,-0.9182 -2.042477,-2.0426 z"
       style="display:inline;fill:#878678;fill-opacity:1;fill-rule:evenodd;stroke-width:1.05832"
       id="path984-5"
       inkscape:connector-curvature="0"
       inkscape:export-filename="/home/m/Жүктемелер/rect154481.png"
       inkscape:export-xdpi="96"
       inkscape:export-ydpi="96" />
    <text
       xml:space="preserve"
       style="font-style:normal;font-variant:normal;font-weight:normal;font-stretch:normal;font-size:12.7px;line-height:0;font-family:sans-serif;-inkscape-font-specification:sans-serif;display:inline;fill:#878678;fill-opacity:1;stroke:none;stroke-width:1.05832;stroke-miterlimit:4;stroke-dasharray:none"
       x="24.207142"
       y="9.5442657"
       id="text2286"
       inkscape:export-filename="/home/m/Жүктемелер/rect154481.png"
       inkscape:export-xdpi="96"
       inkscape:export-ydpi="96"><tspan
         style="font-style:normal;font-variant:normal;font-weight:bold;font-stretch:normal;font-size:6.35px;line-height:0.7;font-family:sans-serif;-inkscape-font-specification:'sans-serif Bold';fill:#878678;fill-opacity:1;stroke-width:1.05832;stroke-miterlimit:4;stroke-dasharray:none"
         sodipodi:role="line"
         id="tspan56229"
         x="24.207142"
         y="9.5442657">Қalpan</tspan><tspan
         style="font-style:normal;font-variant:normal;font-weight:bold;font-stretch:normal;font-size:3.52778px;line-height:0.6;font-family:sans-serif;-inkscape-font-specification:'sans-serif Bold';fill:#878678;fill-opacity:1;stroke-width:1.05832;stroke-miterlimit:4;stroke-dasharray:none"
         sodipodi:role="line"
         id="tspan28353"
         x="24.207142"
         y="13.416277">kөrmesý</tspan><tspan
         sodipodi:role="line"
         x="24.207142"
         y="16.857239"
         style="font-style:normal;font-variant:normal;font-weight:bold;font-stretch:normal;font-size:2.11667px;line-height:0.3;font-family:sans-serif;-inkscape-font-specification:'sans-serif Bold';opacity:0.215582;fill:#57574d;fill-opacity:1;stroke-width:1.05832;stroke-miterlimit:4;stroke-dasharray:none"
         id="tspan2257">sk-joba@outlook.com</tspan></text>
    <g
       id="Layer1063-5"
       transform="matrix(0.26458333,0,0,0.26458333,29.533716,-60.207453)">
      <path
         d="m 95.1111,341.1139 v 9.6001 h 9.6001 v -9.6001 z"
         style="fill:#6b470f;fill-rule:evenodd;stroke:#ffcb00;stroke-width:0.5669;stroke-linecap:butt;stroke-linejoin:miter;stroke-dasharray:none"
         id="path1115-0"
         inkscape:connector-curvature="0" />
      <path
         d="m 95.1111,328.5139 v 9.6001 h 9.6001 v -9.6001 z"
         style="fill:#c6b93a;fill-rule:evenodd;stroke:#ffec00;stroke-width:0.5669;stroke-linecap:butt;stroke-linejoin:miter;stroke-dasharray:none"
         id="path1117-8"
         inkscape:connector-curvature="0" />
      <path
         d="m 95.1111,365.9981 v 9.6001 h 9.6001 v -9.6001 z"
         style="fill:#b1ad81;fill-rule:evenodd;stroke:#ffcb00;stroke-width:0.5669;stroke-linecap:butt;stroke-linejoin:miter;stroke-dasharray:none"
         id="path1119-0"
         inkscape:connector-curvature="0" />
      <path
         d="m 95.1111,353.6654 v 9.6001 h 9.6001 v -9.6001 z"
         style="fill:#878678;fill-rule:evenodd;stroke:#ffcb00;stroke-width:0.5669;stroke-linecap:butt;stroke-linejoin:miter;stroke-dasharray:none"
         id="path1121-4"
         inkscape:connector-curvature="0" />
      <path
         d="m 95.0074,316.6662 v 9.6001 h 9.6001 v -9.6001 z"
         style="fill:#57574d;fill-rule:evenodd;stroke:#ffcb00;stroke-width:0.5669;stroke-linecap:butt;stroke-linejoin:miter;stroke-dasharray:none"
         id="path1123-1"
         inkscape:connector-curvature="0" />
    </g>
    <g
       aria-label="қalyptalgan keskýnder sүuret өnerý tүuyndylary"
       id="text2286-8"
       style="font-size:12.7px;line-height:0.4;-inkscape-font-specification:sans-serif;display:inline;fill:#878678;stroke-width:1.05832">
      <path
         d="m 60.403916,6.3092172 h 1.480014 v 1.5668301 l 1.649512,-1.5668301 h 1.620574 l -1.976108,1.8810229 1.42627,1.8355479 h 0.711068 v 0.913639 1.169955 h -1.480013 v -1.169955 h -0.04961 L 62.301476,9.0253316 61.88393,9.4222067 v 1.5172203 h -1.480014 z"
         style="font-weight:bold;font-size:8.46667px;-inkscape-font-specification:'sans-serif Bold';fill:#808000"
         id="path76548" />
      <path
         d="m 68.225664,8.8558328 q -0.463021,0 -0.698666,0.1570964 -0.23151,0.1570964 -0.23151,0.463021 0,0.2811199 0.186035,0.4423505 0.190169,0.1570963 0.525033,0.1570963 0.417545,0 0.702799,-0.2976563 0.285254,-0.3017905 0.285254,-0.7524091 V 8.8558328 Z m 2.261361,-0.5581057 v 2.6416999 h -1.492416 v -0.686263 q -0.297656,0.42168 -0.669726,0.615983 -0.372071,0.19017 -0.905372,0.19017 -0.719336,0 -1.169955,-0.417546 -0.446484,-0.42168 -0.446484,-1.0914067 0,-0.8144209 0.558105,-1.1947596 0.56224,-0.3803387 1.761134,-0.3803387 h 0.872298 V 7.8595108 q 0,-0.3513999 -0.276985,-0.5126304 -0.276986,-0.1653647 -0.864031,-0.1653647 -0.475423,0 -0.8847,0.095085 -0.409278,0.095085 -0.760678,0.285254 v -1.128614 q 0.475424,-0.1157553 0.954981,-0.1736329 0.479557,-0.062012 0.959115,-0.062012 1.252637,0 1.806609,0.4960939 0.558105,0.4919598 0.558105,1.6040374 z"
         style="font-weight:bold;font-size:8.46667px;-inkscape-font-specification:'sans-serif Bold';fill:#808000"
         id="path76550" />
      <path
         d="M 71.863686,4.5067425 H 73.3437 v 6.4326845 h -1.480014 z"
         style="font-weight:bold;font-size:8.46667px;-inkscape-font-specification:'sans-serif Bold';fill:#808000"
         id="path76552" />
      <path
         d="m 74.158121,6.3092172 h 1.480013 l 1.244369,3.1419283 1.058334,-3.1419283 h 1.480013 l -1.947168,5.0684268 q -0.293523,0.773079 -0.686264,1.079004 -0.388606,0.310059 -1.029395,0.310059 h -0.855762 v -0.971518 h 0.463021 q 0.376205,0 0.545704,-0.119889 0.173633,-0.119889 0.268717,-0.429948 l 0.04134,-0.128158 z"
         style="font-weight:bold;font-size:8.46667px;-inkscape-font-specification:'sans-serif Bold';fill:#808000"
         id="path76554" />
      <path
         d="m 81.764896,10.269701 v 2.43086 H 80.284882 V 6.3092172 h 1.480014 v 0.6779951 q 0.305925,-0.4051434 0.677995,-0.5953128 0.372071,-0.1943034 0.855762,-0.1943034 0.855762,0 1.4056,0.6821291 0.549837,0.6779951 0.549837,1.7487312 0,1.0707361 -0.549837,1.7528656 -0.549838,0.677995 -1.4056,0.677995 -0.483691,0 -0.855762,-0.19017 -0.37207,-0.194303 -0.677995,-0.599446 z m 0.98392,-2.9972347 q -0.475424,0 -0.731739,0.3513999 -0.252181,0.3472657 -0.252181,1.0045902 0,0.6573245 0.252181,1.0087244 0.256315,0.3472657 0.731739,0.3472657 0.475423,0 0.72347,-0.3472657 0.252181,-0.3472658 0.252181,-1.0087244 0,-0.6614586 -0.252181,-1.0087244 -0.248047,-0.3472657 -0.72347,-0.3472657 z"
         style="font-weight:bold;font-size:8.46667px;-inkscape-font-specification:'sans-serif Bold';fill:#808000"
         id="path76556" />
      <path
         d="m 87.961935,4.9945682 v 1.314649 h 1.525489 V 7.367551 h -1.525489 v 1.9637052 q 0,0.322461 0.128158,0.4382163 0.128158,0.1116211 0.508496,0.1116211 h 0.760678 v 1.0583334 h -1.269174 q -0.876433,0 -1.244369,-0.363802 -0.363802,-0.367936 -0.363802,-1.2443688 V 7.367551 H 85.746049 V 6.3092172 h 0.735873 v -1.314649 z"
         style="font-weight:bold;font-size:8.46667px;-inkscape-font-specification:'sans-serif Bold';fill:#808000"
         id="path76558" />
      <path
         d="m 92.468123,8.8558328 q -0.463021,0 -0.698666,0.1570964 -0.23151,0.1570964 -0.23151,0.463021 0,0.2811199 0.186035,0.4423505 0.190169,0.1570963 0.525033,0.1570963 0.417545,0 0.702799,-0.2976563 0.285254,-0.3017905 0.285254,-0.7524091 V 8.8558328 Z m 2.261361,-0.5581057 v 2.6416999 h -1.492416 v -0.686263 q -0.297656,0.42168 -0.669727,0.615983 -0.37207,0.19017 -0.905371,0.19017 -0.719336,0 -1.169955,-0.417546 -0.446484,-0.42168 -0.446484,-1.0914067 0,-0.8144209 0.558105,-1.1947596 0.56224,-0.3803387 1.761134,-0.3803387 h 0.872298 V 7.8595108 q 0,-0.3513999 -0.276985,-0.5126304 -0.276986,-0.1653647 -0.864031,-0.1653647 -0.475423,0 -0.884701,0.095085 -0.409277,0.095085 -0.760677,0.285254 v -1.128614 q 0.475423,-0.1157553 0.954981,-0.1736329 0.479557,-0.062012 0.959115,-0.062012 1.252637,0 1.806609,0.4960939 0.558105,0.4919598 0.558105,1.6040374 z"
         style="font-weight:bold;font-size:8.46667px;-inkscape-font-specification:'sans-serif Bold';fill:#808000"
         id="path76560" />
      <path
         d="m 96.106145,4.5067425 h 1.480013 v 6.4326845 h -1.480013 z"
         style="font-weight:bold;font-size:8.46667px;-inkscape-font-specification:'sans-serif Bold';fill:#808000"
         id="path76562" />
      <path
         d="m 102.15849,10.153945 q -0.30592,0.405144 -0.67386,0.595313 -0.36794,0.190169 -0.85163,0.190169 -0.847492,0 -1.401464,-0.665592 -0.553971,-0.6697272 -0.553971,-1.7032562 0,-1.0376632 0.553971,-1.6991218 0.553972,-0.6655927 1.401464,-0.6655927 0.48369,0 0.85163,0.1901693 0.36794,0.1901694 0.67386,0.5994469 V 6.3092172 h 1.48828 v 4.1630548 q 0,1.116212 -0.70693,1.703256 -0.7028,0.591179 -2.04225,0.591179 -0.43409,0 -0.83923,-0.06615 -0.405144,-0.06615 -0.814421,-0.202572 v -1.153418 q 0.388606,0.223242 0.760681,0.330729 0.37207,0.111621 0.74827,0.111621 0.72761,0 1.0666,-0.318327 0.339,-0.318327 0.339,-0.996322 z m -0.97565,-2.8814787 q -0.45889,0 -0.7152,0.3389975 -0.25632,0.3389975 -0.25632,0.959115 0,0.6366539 0.24805,0.9673832 0.24805,0.3265952 0.72347,0.3265952 0.46302,0 0.71934,-0.3389976 0.25631,-0.3389975 0.25631,-0.9549808 0,-0.6201175 -0.25631,-0.959115 -0.25632,-0.3389975 -0.71934,-0.3389975 z"
         style="font-weight:bold;font-size:8.46667px;-inkscape-font-specification:'sans-serif Bold';fill:#808000"
         id="path76564" />
      <path
         d="m 107.14424,8.8558328 q -0.46303,0 -0.69867,0.1570964 -0.23151,0.1570964 -0.23151,0.463021 0,0.2811199 0.18603,0.4423505 0.19017,0.1570963 0.52504,0.1570963 0.41754,0 0.7028,-0.2976563 0.28525,-0.3017905 0.28525,-0.7524091 V 8.8558328 Z m 2.26136,-0.5581057 v 2.6416999 h -1.49242 v -0.686263 q -0.29765,0.42168 -0.66973,0.615983 -0.37207,0.19017 -0.90537,0.19017 -0.71933,0 -1.16995,-0.417546 -0.44649,-0.42168 -0.44649,-1.0914067 0,-0.8144209 0.55811,-1.1947596 0.56224,-0.3803387 1.76113,-0.3803387 h 0.8723 V 7.8595108 q 0,-0.3513999 -0.27698,-0.5126304 -0.27699,-0.1653647 -0.86403,-0.1653647 -0.47543,0 -0.88471,0.095085 -0.40927,0.095085 -0.76067,0.285254 v -1.128614 q 0.47542,-0.1157553 0.95498,-0.1736329 0.47956,-0.062012 0.95911,-0.062012 1.25264,0 1.80661,0.4960939 0.55811,0.4919598 0.55811,1.6040374 z"
         style="font-weight:bold;font-size:8.46667px;-inkscape-font-specification:'sans-serif Bold';fill:#808000"
         id="path76566" />
      <path
         d="m 115.43727,8.1199601 v 2.8194669 h -1.48828 V 10.48054 8.7814187 q 0,-0.5994468 -0.0289,-0.8268232 -0.0248,-0.2273764 -0.091,-0.3348635 -0.0868,-0.144694 -0.23564,-0.2232422 -0.14883,-0.082682 -0.339,-0.082682 -0.46302,0 -0.72761,0.3596682 -0.26458,0.355534 -0.26458,0.9880537 v 2.2778973 h -1.48001 V 6.3092172 h 1.48001 v 0.6779951 q 0.33486,-0.4051434 0.71107,-0.5953128 0.3762,-0.1943034 0.83096,-0.1943034 0.80202,0 1.21543,0.4919598 0.41754,0.4919598 0.41754,1.4304042 z"
         style="font-weight:bold;font-size:8.46667px;-inkscape-font-specification:'sans-serif Bold';fill:#808000"
         id="path76568" />
      <path
         d="m 119.75742,4.5067425 h 1.48002 V 8.008339 l 1.70325,-1.6991218 h 1.7198 l -2.26137,2.1249357 2.43913,2.5052741 h -1.7942 l -1.80661,-1.9306319 v 1.9306319 h -1.48002 z"
         style="font-weight:bold;font-size:8.46667px;-inkscape-font-specification:'sans-serif Bold';fill:#808000"
         id="path76570" />
      <path
         d="m 129.78266,8.6119199 v 0.4216799 h -3.46026 q 0.0537,0.5208986 0.37621,0.781348 0.32246,0.2604492 0.90123,0.2604492 0.46716,0 0.95498,-0.1364258 0.49196,-0.1405599 1.00873,-0.4216798 v 1.1410156 q -0.52503,0.198438 -1.05007,0.297657 -0.52503,0.103353 -1.05006,0.103353 -1.25677,0 -1.95544,-0.636654 -0.69453,-0.6407882 -0.69453,-1.7942066 0,-1.1327478 0.68213,-1.7818041 0.68626,-0.6490562 1.88515,-0.6490562 1.09141,0 1.7446,0.6573244 0.65733,0.6573245 0.65733,1.7569994 z M 128.2613,8.1199601 q 0,-0.4216798 -0.24805,-0.6779951 -0.24391,-0.2604493 -0.64078,-0.2604493 -0.42995,0 -0.69867,0.2439129 -0.26872,0.2397787 -0.33486,0.6945315 z"
         style="font-weight:bold;font-size:8.46667px;-inkscape-font-specification:'sans-serif Bold';fill:#808000"
         id="path76572" />
      <path
         d="m 134.52035,6.4539113 v 1.1244796 q -0.47542,-0.1984376 -0.91777,-0.2976564 -0.44235,-0.099219 -0.83509,-0.099219 -0.42168,0 -0.62839,0.107487 -0.20257,0.103353 -0.20257,0.3224611 0,0.177767 0.15296,0.2728517 0.1571,0.095085 0.55811,0.1405599 l 0.26045,0.037207 q 1.13688,0.144694 1.52962,0.4754233 0.39274,0.3307293 0.39274,1.0376632 0,0.7400073 -0.5457,1.1120773 -0.54571,0.372071 -1.62884,0.372071 -0.45889,0 -0.95085,-0.07441 -0.48783,-0.07028 -1.00459,-0.214974 V 9.6454527 q 0.44235,0.214974 0.90537,0.3224611 0.46716,0.1074872 0.94671,0.1074872 0.43409,0 0.65319,-0.1198896 0.21911,-0.1198894 0.21911,-0.355534 0,-0.1984376 -0.15296,-0.2935222 -0.14883,-0.099219 -0.59945,-0.1529623 l -0.26045,-0.033073 q -0.98805,-0.1240235 -1.38493,-0.4588869 -0.39687,-0.3348634 -0.39687,-1.0169926 0,-0.7358726 0.50436,-1.0914066 0.50436,-0.355534 1.54616,-0.355534 0.40928,0 0.8599,0.062012 0.45062,0.062012 0.97978,0.1943035 z"
         style="font-weight:bold;font-size:8.46667px;-inkscape-font-specification:'sans-serif Bold';fill:#808000"
         id="path76574" />
      <path
         d="m 135.94249,4.5067425 h 1.48001 V 8.008339 l 1.70326,-1.6991218 h 1.71979 l -2.26136,2.1249357 2.43913,2.5052741 h -1.79421 L 137.4225,9.0087951 v 1.9306319 h -1.48001 z"
         style="font-weight:bold;font-size:8.46667px;-inkscape-font-specification:'sans-serif Bold';fill:#808000"
         id="path76576" />
      <path
         d="m 140.96544,6.3092172 h 1.48002 l 1.24437,3.1419283 1.05833,-3.1419283 h 1.48001 l -1.94716,5.0684268 q -0.29353,0.773079 -0.68627,1.079004 -0.38861,0.310059 -1.02939,0.310059 h -0.85577 v -0.971518 h 0.46303 q 0.3762,0 0.5457,-0.119889 0.17363,-0.119889 0.26872,-0.429948 l 0.0413,-0.128158 z m 3.21635,-2.1414722 h 1.16995 l -1.52549,1.5544277 h -0.81028 z"
         style="font-weight:bold;font-size:8.46667px;-inkscape-font-specification:'sans-serif Bold';fill:#808000"
         id="path76578" />
      <path
         d="m 151.74722,8.1199601 v 2.8194669 h -1.48828 V 10.48054 8.7814187 q 0,-0.5994468 -0.0289,-0.8268232 -0.0248,-0.2273764 -0.0909,-0.3348635 -0.0868,-0.144694 -0.23565,-0.2232422 -0.14883,-0.082682 -0.339,-0.082682 -0.46302,0 -0.7276,0.3596682 -0.26458,0.355534 -0.26458,0.9880537 V 10.939427 H 147.0922 V 6.3092172 h 1.48002 v 0.6779951 q 0.33486,-0.4051434 0.71106,-0.5953128 0.37621,-0.1943034 0.83096,-0.1943034 0.80202,0 1.21543,0.4919598 0.41755,0.4919598 0.41755,1.4304042 z"
         style="font-weight:bold;font-size:8.46667px;-inkscape-font-specification:'sans-serif Bold';fill:#808000"
         id="path76580" />
      <path
         d="M 156.26994,6.9872123 V 4.5067425 h 1.48828 v 6.4326845 h -1.48828 v -0.669726 q -0.30592,0.409277 -0.67386,0.599446 -0.36794,0.19017 -0.85163,0.19017 -0.85576,0 -1.4056,-0.677995 -0.54984,-0.6821295 -0.54984,-1.7528656 0,-1.0707361 0.54984,-1.7487312 0.54984,-0.6821291 1.4056,-0.6821291 0.47956,0 0.8475,0.1943034 0.37207,0.1901694 0.67799,0.5953128 z m -0.97565,2.9972342 q 0.47542,0 0.72347,-0.3472657 0.25218,-0.3472658 0.25218,-1.0087244 0,-0.6614586 -0.25218,-1.0087244 -0.24805,-0.3472657 -0.72347,-0.3472657 -0.47129,0 -0.72347,0.3472657 -0.24805,0.3472658 -0.24805,1.0087244 0,0.6614586 0.24805,1.0087244 0.25218,0.3472657 0.72347,0.3472657 z"
         style="font-weight:bold;font-size:8.46667px;-inkscape-font-specification:'sans-serif Bold';fill:#808000"
         id="path76582" />
      <path
         d="m 163.8023,8.6119199 v 0.4216799 h -3.46025 q 0.0537,0.5208986 0.3762,0.781348 0.32246,0.2604492 0.90124,0.2604492 0.46715,0 0.95498,-0.1364258 0.49196,-0.1405599 1.00872,-0.4216798 v 1.1410156 q -0.52503,0.198438 -1.05006,0.297657 -0.52503,0.103353 -1.05007,0.103353 -1.25677,0 -1.95543,-0.636654 -0.69454,-0.6407882 -0.69454,-1.7942066 0,-1.1327478 0.68213,-1.7818041 0.68627,-0.6490562 1.88516,-0.6490562 1.09141,0 1.7446,0.6573244 0.65732,0.6573245 0.65732,1.7569994 z m -1.52135,-0.4919598 q 0,-0.4216798 -0.24805,-0.6779951 -0.24391,-0.2604493 -0.64079,-0.2604493 -0.42995,0 -0.69866,0.2439129 -0.26872,0.2397787 -0.33487,0.6945315 z"
         style="font-weight:bold;font-size:8.46667px;-inkscape-font-specification:'sans-serif Bold';fill:#808000"
         id="path76584" />
      <path
         d="m 168.36223,7.5701226 q -0.1943,-0.09095 -0.38861,-0.1322917 -0.19017,-0.045475 -0.38447,-0.045475 -0.57051,0 -0.88057,0.3679363 -0.30592,0.3638022 -0.30592,1.0459314 v 2.1332034 h -1.48001 V 6.3092172 h 1.48001 v 0.7606774 q 0.28525,-0.4547528 0.65319,-0.6614586 0.37207,-0.2108399 0.88884,-0.2108399 0.0744,0 0.16123,0.00827 0.0868,0.00413 0.25218,0.024805 z"
         style="font-weight:bold;font-size:8.46667px;-inkscape-font-specification:'sans-serif Bold';fill:#808000"
         id="path76586" />
    </g>
    <path
       style="fill:none;stroke:#878678;stroke-width:0.222007px;stroke-linecap:butt;stroke-linejoin:miter;stroke-opacity:1"
       d="m 51.047293,4.5974853 c 0,12.4585497 0,12.5894057 0,12.5894057"
       id="path111900" />
    <path
       style="fill:none;stroke:#808000;stroke-width:0.865;stroke-linecap:butt;stroke-linejoin:miter;stroke-miterlimit:4;stroke-dasharray:none;stroke-opacity:1"
       d="M 99.080095,5.677824 C 100.62981,4.422473 101.921,5.353066 103.18485,4.761651 v 0"
       id="path8394"
       sodipodi:nodetypes="ccc" />
    <text
       xml:space="preserve"
       style="font-style:normal;font-variant:normal;font-weight:normal;font-stretch:normal;font-size:12.7px;line-height:0.4;font-family:sans-serif;-inkscape-font-specification:sans-serif;display:inline;opacity:1;fill:#878678;fill-opacity:1;stroke:none;stroke-width:1.05832;stroke-miterlimit:4;stroke-dasharray:none"
       x="60.18372"
       y="16.292633"
       id="text2286-8-1"
       inkscape:export-filename="/home/m/Жүктемелер/rect154481.png"
       inkscape:export-xdpi="96"
       inkscape:export-ydpi="96"><tspan
         sodipodi:role="line"
         x="60.18372"
         y="16.292633"
         style="font-style:normal;font-variant:normal;font-weight:normal;font-stretch:normal;font-size:4.23332px;font-family:sans-serif;-inkscape-font-specification:sans-serif;fill:#808000;fill-opacity:1;stroke-width:1.05832;stroke-miterlimit:4;stroke-dasharray:none"
         id="tspan73232-0">súuret өnerý tūuyndylary</tspan></text>
  </g>
</svg>
