<?xml version="1.0" encoding="UTF-8" standalone="no"?>
<!-- Created with Inkscape (http://www.inkscape.org/) -->

<svg
   width="569"
   height="76.358002"
   viewBox="0 0 150.54792 20.203055"
   version="1.1"
   id="svg4436"
   inkscape:version="1.1.2 (0a00cf5339, 2022-02-04)"
   sodipodi:docname="taңba-garyh tylsym alem.svg"
   xmlns:inkscape="http://www.inkscape.org/namespaces/inkscape"
   xmlns:sodipodi="http://sodipodi.sourceforge.net/DTD/sodipodi-0.dtd"
   xmlns="http://www.w3.org/2000/svg"
   xmlns:svg="http://www.w3.org/2000/svg">
  <sodipodi:namedview
     id="namedview4438"
     pagecolor="#ffffff"
     bordercolor="#666666"
     borderopacity="1.0"
     inkscape:pageshadow="2"
     inkscape:pageopacity="0.0"
     inkscape:pagecheckerboard="0"
     inkscape:document-units="mm"
     showgrid="false"
     units="px"
     inkscape:zoom="1.07"
     inkscape:cx="330.84112"
     inkscape:cy="131.30841"
     inkscape:window-width="1600"
     inkscape:window-height="848"
     inkscape:window-x="0"
     inkscape:window-y="0"
     inkscape:window-maximized="1"
     inkscape:current-layer="layer1"
     showguides="true"
     inkscape:guide-bbox="true" />
  <defs
     id="defs4433">
    <style
       type="text/css"
       id="style4624"><![CDATA[
    .str0 {stroke:#6B470F;stroke-width:341.67;stroke-miterlimit:22.9256}
    .fil0 {fill:none}
    .fil1 {fill:#6B470F}
   ]]></style>
  </defs>
  <g
     inkscape:label="Layer 1"
     inkscape:groupmode="layer"
     id="layer1">
    <rect
       style="display:inline;fill:none;fill-opacity:1;stroke:none;stroke-width:1.48661;stroke-miterlimit:4;stroke-dasharray:none;stroke-opacity:1"
       id="rect154481"
       width="121.44375"
       height="20.203054"
       x="0.23386478"
       y="0.23386478"
       inkscape:export-filename="/home/m/Жүктемелер/rect154481.png"
       inkscape:export-xdpi="96"
       inkscape:export-ydpi="96" />
    <path
       d="m 12.351096,4.3713196 c -5.6500089,0.89196 -7.5332059,4.4408 -8.0885089,6.5223204 -0.485671,1.80392 -0.346799,4.7678 3.687329,4.86704 1.308522,0 5.1148109,-0.008 8.2368899,0 3.876033,0.008 4.956378,-3.09264 4.867267,-5.75912 -0.16964,-4.8415604 -4.527332,-6.2833204 -8.702977,-5.6302404 z"
       style="display:inline;fill:none;stroke:#878678;stroke-width:2.25002;stroke-linecap:butt;stroke-linejoin:miter;stroke-dasharray:none;stroke-opacity:1"
       id="path982-7"
       inkscape:connector-curvature="0"
       inkscape:export-filename="/home/m/Жүктемелер/rect154481.png"
       inkscape:export-xdpi="96"
       inkscape:export-ydpi="96" />
    <path
       d="m 7.2752291,11.23048 c 0,-1.12436 0.918107,-2.0425604 2.042477,-2.0425604 1.1244779,0 2.0425809,0.9182004 2.0425809,2.0425604 0,1.1244 -0.918103,2.0426 -2.0425809,2.0426 -1.12437,0 -2.042477,-0.9182 -2.042477,-2.0426 z"
       style="display:inline;fill:#878678;fill-opacity:1;fill-rule:evenodd;stroke-width:1.05832"
       id="path984-5"
       inkscape:connector-curvature="0"
       inkscape:export-filename="/home/m/Жүктемелер/rect154481.png"
       inkscape:export-xdpi="96"
       inkscape:export-ydpi="96" />
    <text
       xml:space="preserve"
       style="font-style:normal;font-variant:normal;font-weight:normal;font-stretch:normal;font-size:12.7px;line-height:0;font-family:sans-serif;-inkscape-font-specification:sans-serif;display:inline;fill:#878678;fill-opacity:1;stroke:none;stroke-width:1.05832;stroke-miterlimit:4;stroke-dasharray:none"
       x="24.207142"
       y="9.5442657"
       id="text2286"
       inkscape:export-filename="/home/m/Жүктемелер/rect154481.png"
       inkscape:export-xdpi="96"
       inkscape:export-ydpi="96"><tspan
         style="font-style:normal;font-variant:normal;font-weight:bold;font-stretch:normal;font-size:6.35px;line-height:0.7;font-family:sans-serif;-inkscape-font-specification:'sans-serif Bold';fill:#878678;fill-opacity:1;stroke-width:1.05832;stroke-miterlimit:4;stroke-dasharray:none"
         sodipodi:role="line"
         id="tspan56229"
         x="24.207142"
         y="9.5442657">Қalpan</tspan><tspan
         style="font-style:normal;font-variant:normal;font-weight:bold;font-stretch:normal;font-size:3.52778px;line-height:0.6;font-family:sans-serif;-inkscape-font-specification:'sans-serif Bold';fill:#878678;fill-opacity:1;stroke-width:1.05832;stroke-miterlimit:4;stroke-dasharray:none"
         sodipodi:role="line"
         id="tspan28353"
         x="24.207142"
         y="13.416277">kөrmesý</tspan><tspan
         sodipodi:role="line"
         x="24.207142"
         y="16.857239"
         style="font-style:normal;font-variant:normal;font-weight:bold;font-stretch:normal;font-size:2.11667px;line-height:0.3;font-family:sans-serif;-inkscape-font-specification:'sans-serif Bold';opacity:0.215582;fill:#57574d;fill-opacity:1;stroke-width:1.05832;stroke-miterlimit:4;stroke-dasharray:none"
         id="tspan2257">sk-joba@outlook.com</tspan></text>
    <g
       id="Layer1063-5"
       transform="matrix(0.26458333,0,0,0.26458333,29.533716,-60.207453)">
      <path
         d="m 95.1111,341.1139 v 9.6001 h 9.6001 v -9.6001 z"
         style="fill:#6b470f;fill-rule:evenodd;stroke:#ffcb00;stroke-width:0.5669;stroke-linecap:butt;stroke-linejoin:miter;stroke-dasharray:none"
         id="path1115-0"
         inkscape:connector-curvature="0" />
      <path
         d="m 95.1111,328.5139 v 9.6001 h 9.6001 v -9.6001 z"
         style="fill:#c6b93a;fill-rule:evenodd;stroke:#ffec00;stroke-width:0.5669;stroke-linecap:butt;stroke-linejoin:miter;stroke-dasharray:none"
         id="path1117-8"
         inkscape:connector-curvature="0" />
      <path
         d="m 95.1111,365.9981 v 9.6001 h 9.6001 v -9.6001 z"
         style="fill:#b1ad81;fill-rule:evenodd;stroke:#ffcb00;stroke-width:0.5669;stroke-linecap:butt;stroke-linejoin:miter;stroke-dasharray:none"
         id="path1119-0"
         inkscape:connector-curvature="0" />
      <path
         d="m 95.1111,353.6654 v 9.6001 h 9.6001 v -9.6001 z"
         style="fill:#878678;fill-rule:evenodd;stroke:#ffcb00;stroke-width:0.5669;stroke-linecap:butt;stroke-linejoin:miter;stroke-dasharray:none"
         id="path1121-4"
         inkscape:connector-curvature="0" />
      <path
         d="m 95.0074,316.6662 v 9.6001 h 9.6001 v -9.6001 z"
         style="fill:#57574d;fill-rule:evenodd;stroke:#ffcb00;stroke-width:0.5669;stroke-linecap:butt;stroke-linejoin:miter;stroke-dasharray:none"
         id="path1123-1"
         inkscape:connector-curvature="0" />
    </g>
    <g
       aria-label="garyh tylsym әlem
sүuret өnerý tүuyndylary"
       id="text2286-8"
       style="font-size:12.7px;line-height:0.4;-inkscape-font-specification:sans-serif;display:inline;fill:#878678;stroke-width:1.05832">
      <path
         d="m 63.554113,10.153945 q -0.305925,0.405144 -0.673861,0.595313 -0.367937,0.190169 -0.851628,0.190169 -0.847494,0 -1.401466,-0.665592 -0.553971,-0.6697272 -0.553971,-1.7032562 0,-1.0376632 0.553971,-1.6991218 0.553972,-0.6655927 1.401466,-0.6655927 0.483691,0 0.851628,0.1901693 0.367936,0.1901694 0.673861,0.5994469 V 6.3092172 h 1.488282 v 4.1630548 q 0,1.116212 -0.706934,1.703256 -0.7028,0.591179 -2.042254,0.591179 -0.434082,0 -0.839225,-0.06615 -0.405144,-0.06615 -0.814421,-0.202572 v -1.153418 q 0.388607,0.223242 0.760677,0.330729 0.372071,0.111621 0.748275,0.111621 0.727605,0 1.066602,-0.318327 0.338998,-0.318327 0.338998,-0.996322 z M 62.578461,7.2724663 q -0.458887,0 -0.715202,0.3389975 -0.256315,0.3389975 -0.256315,0.959115 0,0.6366539 0.248047,0.9673832 0.248047,0.3265952 0.72347,0.3265952 0.463021,0 0.719337,-0.3389976 0.256315,-0.3389975 0.256315,-0.9549808 0,-0.6201175 -0.256315,-0.959115 -0.256316,-0.3389975 -0.719337,-0.3389975 z"
         style="font-weight:bold;font-size:8.46667px;-inkscape-font-specification:'sans-serif Bold';fill:#808000"
         id="path37381" />
      <path
         d="m 68.539857,8.8558328 q -0.463021,0 -0.698666,0.1570964 -0.23151,0.1570964 -0.23151,0.463021 0,0.2811199 0.186035,0.4423505 0.19017,0.1570963 0.525033,0.1570963 0.417546,0 0.7028,-0.2976563 0.285254,-0.3017905 0.285254,-0.7524091 V 8.8558328 Z m 2.261362,-0.5581057 v 2.6416999 h -1.492416 v -0.686263 q -0.297657,0.42168 -0.669727,0.615983 -0.372071,0.19017 -0.905372,0.19017 -0.719336,0 -1.169954,-0.417546 -0.446485,-0.42168 -0.446485,-1.0914067 0,-0.8144209 0.558106,-1.1947596 0.56224,-0.3803387 1.761133,-0.3803387 h 0.872299 V 7.8595108 q 0,-0.3513999 -0.276986,-0.5126304 -0.276986,-0.1653647 -0.86403,-0.1653647 -0.475424,0 -0.884701,0.095085 -0.409278,0.095085 -0.760678,0.285254 v -1.128614 q 0.475424,-0.1157553 0.954981,-0.1736329 0.479558,-0.062012 0.959115,-0.062012 1.252637,0 1.806609,0.4960939 0.558106,0.4919598 0.558106,1.6040374 z"
         style="font-weight:bold;font-size:8.46667px;-inkscape-font-specification:'sans-serif Bold';fill:#808000"
         id="path37383" />
      <path
         d="m 75.617465,7.5701226 q -0.194304,-0.09095 -0.388607,-0.1322917 -0.190169,-0.045475 -0.384473,-0.045475 -0.570508,0 -0.880567,0.3679363 -0.305924,0.3638022 -0.305924,1.0459314 V 10.939427 H 72.17788 V 6.3092172 h 1.480014 v 0.7606774 q 0.285254,-0.4547528 0.65319,-0.6614586 0.372071,-0.2108399 0.888835,-0.2108399 0.07441,0 0.161231,0.00827 0.08682,0.00413 0.252181,0.024805 z"
         style="font-weight:bold;font-size:8.46667px;-inkscape-font-specification:'sans-serif Bold';fill:#808000"
         id="path37385" />
      <path
         d="m 75.745622,6.3092172 h 1.480014 l 1.244369,3.1419283 1.058333,-3.1419283 h 1.480014 l -1.947169,5.0684268 q -0.293522,0.773079 -0.686263,1.079004 -0.388607,0.310059 -1.029395,0.310059 h -0.855762 v -0.971518 h 0.463021 q 0.376205,0 0.545703,-0.119889 0.173633,-0.119889 0.268718,-0.429948 l 0.04134,-0.128158 z"
         style="font-weight:bold;font-size:8.46667px;-inkscape-font-specification:'sans-serif Bold';fill:#808000"
         id="path37387" />
      <path
         d="M 86.527397,8.1199601 V 10.939427 H 85.039115 V 10.48054 8.7896869 q 0,-0.607715 -0.02894,-0.8350914 -0.0248,-0.2273764 -0.09095,-0.3348635 -0.08682,-0.144694 -0.235645,-0.2232422 -0.148828,-0.082682 -0.338997,-0.082682 -0.463022,0 -0.727605,0.3596682 -0.264583,0.355534 -0.264583,0.9880537 V 10.939427 H 81.872382 V 4.5067425 h 1.480014 v 2.4804698 q 0.334863,-0.4051434 0.711068,-0.5953128 0.376204,-0.1943034 0.830957,-0.1943034 0.802019,0 1.21543,0.4919598 0.417546,0.4919598 0.417546,1.4304042 z"
         style="font-weight:bold;font-size:8.46667px;-inkscape-font-specification:'sans-serif Bold';fill:#808000"
         id="path37389" />
      <path
         d="m 92.463988,4.9945682 v 1.314649 h 1.525489 V 7.367551 h -1.525489 v 1.9637052 q 0,0.322461 0.128157,0.4382163 0.128158,0.1116211 0.508497,0.1116211 h 0.760677 v 1.0583334 h -1.269174 q -0.876432,0 -1.244369,-0.363802 -0.363802,-0.367936 -0.363802,-1.2443688 V 7.367551 H 90.248101 V 6.3092172 h 0.735873 v -1.314649 z"
         style="font-weight:bold;font-size:8.46667px;-inkscape-font-specification:'sans-serif Bold';fill:#808000"
         id="path37391" />
      <path
         d="m 94.287134,6.3092172 h 1.480013 l 1.244369,3.1419283 1.058334,-3.1419283 h 1.480014 l -1.947169,5.0684268 q -0.293522,0.773079 -0.686264,1.079004 -0.388606,0.310059 -1.029394,0.310059 h -0.855763 v -0.971518 h 0.463022 q 0.376204,0 0.545703,-0.119889 0.173633,-0.119889 0.268717,-0.429948 l 0.04134,-0.128158 z"
         style="font-weight:bold;font-size:8.46667px;-inkscape-font-specification:'sans-serif Bold';fill:#808000"
         id="path37393" />
      <path
         d="m 100.4139,4.5067425 h 1.48001 v 6.4326845 h -1.48001 z"
         style="font-weight:bold;font-size:8.46667px;-inkscape-font-specification:'sans-serif Bold';fill:#808000"
         id="path37395" />
      <path
         d="m 106.9334,6.4539113 v 1.1244796 q -0.47543,-0.1984376 -0.91778,-0.2976564 -0.44235,-0.099219 -0.83509,-0.099219 -0.42168,0 -0.62838,0.107487 -0.20258,0.103353 -0.20258,0.3224611 0,0.177767 0.15297,0.2728517 0.15709,0.095085 0.5581,0.1405599 l 0.26045,0.037207 q 1.13688,0.144694 1.52962,0.4754233 0.39275,0.3307293 0.39275,1.0376632 0,0.7400073 -0.54571,1.1120773 -0.5457,0.372071 -1.62884,0.372071 -0.45889,0 -0.95085,-0.07441 -0.48782,-0.07028 -1.00459,-0.214974 V 9.6454527 q 0.44235,0.214974 0.90537,0.3224611 0.46716,0.1074872 0.94672,0.1074872 0.43408,0 0.65319,-0.1198896 0.21911,-0.1198894 0.21911,-0.355534 0,-0.1984376 -0.15297,-0.2935222 -0.14882,-0.099219 -0.59944,-0.1529623 L 104.825,9.1204162 q -0.98806,-0.1240235 -1.38493,-0.4588869 -0.39688,-0.3348634 -0.39688,-1.0169926 0,-0.7358726 0.50437,-1.0914066 0.50436,-0.355534 1.54615,-0.355534 0.40928,0 0.8599,0.062012 0.45062,0.062012 0.97979,0.1943032 z"
         style="font-weight:bold;font-size:8.46667px;-inkscape-font-specification:'sans-serif Bold';fill:#808000"
         id="path37397" />
      <path
         d="m 107.74782,6.3092172 h 1.48001 l 1.24437,3.1419283 1.05833,-3.1419283 h 1.48002 l -1.94717,5.0684268 q -0.29353,0.773079 -0.68627,1.079004 -0.3886,0.310059 -1.02939,0.310059 h -0.85576 v -0.971518 h 0.46302 q 0.3762,0 0.5457,-0.119889 0.17363,-0.119889 0.26872,-0.429948 l 0.0413,-0.128158 z"
         style="font-weight:bold;font-size:8.46667px;-inkscape-font-specification:'sans-serif Bold';fill:#808000"
         id="path37399" />
      <path
         d="m 118.16579,7.0781628 q 0.28112,-0.4299481 0.66559,-0.6531903 0.38861,-0.2273764 0.85163,-0.2273764 0.79789,0 1.21543,0.4919598 0.41755,0.4919598 0.41755,1.4304042 V 10.939427 H 119.8277 V 8.5251035 q 0.004,-0.053743 0.004,-0.1116211 0.004,-0.057878 0.004,-0.1653647 0,-0.4919598 -0.14469,-0.711068 -0.1447,-0.2232423 -0.46716,-0.2232423 -0.42168,0 -0.65319,0.3472658 -0.22737,0.3472658 -0.23564,1.0045903 v 2.2737635 h -1.48828 V 8.5251035 q 0,-0.7689456 -0.13229,-0.9880538 -0.1323,-0.2232423 -0.47129,-0.2232423 -0.42582,0 -0.65733,0.3513999 -0.23151,0.3472658 -0.23151,0.996322 v 2.2778977 h -1.48828 V 6.3092172 h 1.48828 v 0.6779951 q 0.27285,-0.3927411 0.62425,-0.5911787 0.35554,-0.1984375 0.78135,-0.1984375 0.47956,0 0.84749,0.2315105 0.36794,0.2315105 0.55811,0.6490562 z"
         style="font-weight:bold;font-size:8.46667px;-inkscape-font-specification:'sans-serif Bold';fill:#808000"
         id="path37401" />
      <path
         d="M 125.29714,8.6449929 V 8.223313 h 3.46025 q -0.0537,-0.5208986 -0.3762,-0.781348 -0.32246,-0.2604493 -0.90124,-0.2604493 -0.46716,0 -0.95912,0.14056 -0.48782,0.1364258 -1.00459,0.4175457 V 6.5986053 q 0.52504,-0.1984375 1.05007,-0.2976563 0.52503,-0.1033529 1.05007,-0.1033529 1.25677,0 1.9513,0.640788 0.69866,0.6366539 0.69866,1.7900723 0,1.1327479 -0.68626,1.7818036 -0.68213,0.649057 -1.88102,0.649057 -1.09141,0 -1.74873,-0.657325 -0.65319,-0.6573242 -0.65319,-1.7569991 z m 1.52135,0.4919598 q 0,0.4216799 0.24391,0.6821292 0.24805,0.2563151 0.64493,0.2563151 0.42994,0 0.69866,-0.2397787 0.26872,-0.2439128 0.33487,-0.6986656 z"
         style="font-weight:bold;font-size:8.46667px;-inkscape-font-specification:'sans-serif Bold';fill:#808000"
         id="path37403" />
      <path
         d="m 131.3867,4.5067425 h 1.48001 v 6.4326845 h -1.48001 z"
         style="font-weight:bold;font-size:8.46667px;-inkscape-font-specification:'sans-serif Bold';fill:#808000"
         id="path37405" />
      <path
         d="m 138.91078,8.6119199 v 0.4216799 h -3.46025 q 0.0537,0.5208986 0.3762,0.781348 0.32246,0.2604492 0.90124,0.2604492 0.46716,0 0.95498,-0.1364258 0.49196,-0.1405599 1.00873,-0.4216798 v 1.1410156 q -0.52504,0.198438 -1.05007,0.297657 -0.52503,0.103353 -1.05007,0.103353 -1.25677,0 -1.95543,-0.636654 -0.69453,-0.6407882 -0.69453,-1.7942066 0,-1.1327478 0.68213,-1.7818041 0.68626,-0.6490562 1.88515,-0.6490562 1.09141,0 1.7446,0.6573244 0.65732,0.6573245 0.65732,1.7569994 z m -1.52135,-0.4919598 q 0,-0.4216798 -0.24805,-0.6779951 -0.24391,-0.2604493 -0.64079,-0.2604493 -0.42994,0 -0.69866,0.2439129 -0.26872,0.2397787 -0.33486,0.6945315 z"
         style="font-weight:bold;font-size:8.46667px;-inkscape-font-specification:'sans-serif Bold';fill:#808000"
         id="path37407" />
      <path
         d="m 144.32234,7.0781628 q 0.28112,-0.4299481 0.66559,-0.6531903 0.38861,-0.2273764 0.85163,-0.2273764 0.79789,0 1.21543,0.4919598 0.41755,0.4919598 0.41755,1.4304042 v 2.8194669 h -1.48828 V 8.5251035 q 0.004,-0.053743 0.004,-0.1116211 0.004,-0.057878 0.004,-0.1653647 0,-0.4919598 -0.14469,-0.711068 -0.14469,-0.2232423 -0.46715,-0.2232423 -0.42168,0 -0.6532,0.3472658 -0.22737,0.3472658 -0.23564,1.0045903 V 10.939427 H 143.0033 V 8.5251035 q 0,-0.7689456 -0.13229,-0.9880538 -0.1323,-0.2232423 -0.47129,-0.2232423 -0.42582,0 -0.65733,0.3513999 -0.23151,0.3472658 -0.23151,0.996322 V 10.939427 H 140.0226 V 6.3092172 h 1.48828 v 0.6779951 q 0.27285,-0.3927411 0.62425,-0.5911787 0.35554,-0.1984375 0.78135,-0.1984375 0.47956,0 0.8475,0.2315105 0.36793,0.2315105 0.5581,0.6490562 z"
         style="font-weight:bold;font-size:8.46667px;-inkscape-font-specification:'sans-serif Bold';fill:#808000"
         id="path37409" />
      <path
         d="m 61.567663,14.025551 v 0.359666 q -0.16123,-0.08268 -0.334862,-0.124023 -0.173632,-0.04134 -0.359667,-0.04134 -0.283186,0 -0.425812,0.08682 -0.14056,0.08682 -0.14056,0.260448 0,0.132291 0.101286,0.208772 0.101285,0.07441 0.407209,0.142627 l 0.130224,0.02894 q 0.405142,0.08682 0.57464,0.245979 0.171565,0.157096 0.171565,0.440282 0,0.32246 -0.256314,0.510562 -0.254247,0.188101 -0.70073,0.188101 -0.186035,0 -0.388606,-0.03721 -0.200504,-0.03514 -0.423745,-0.107487 v -0.39274 q 0.210839,0.109554 0.415477,0.165364 0.204638,0.05374 0.405142,0.05374 0.268717,0 0.41341,-0.09095 0.144694,-0.09302 0.144694,-0.260448 0,-0.155029 -0.10542,-0.237711 -0.103352,-0.08268 -0.456818,-0.159163 l -0.132291,-0.03101 q -0.353466,-0.07441 -0.510562,-0.227375 -0.157096,-0.155029 -0.157096,-0.423746 0,-0.326594 0.23151,-0.50436 0.23151,-0.177766 0.657322,-0.177766 0.210839,0 0.396874,0.031 0.186035,0.03101 0.34313,0.09302 z"
         style="font-size:4.23332px;fill:#808000"
         id="path37411" />
      <path
         d="m 63.363931,16.235228 v 0.917771 h -0.403075 v -0.917771 l -0.936374,-2.27789 h 0.403075 l 0.723467,1.810737 0.723468,-1.810737 h 0.403075 z"
         style="font-size:4.23332px;fill:#808000"
         id="path37413" />
      <path
         d="m 64.763324,15.358798 v -1.40146 h 0.380337 v 1.386991 q 0,0.328661 0.128157,0.494025 0.128157,0.163297 0.384472,0.163297 0.30799,0 0.485757,-0.19637 0.179833,-0.196369 0.179833,-0.535366 v -1.312577 h 0.380338 v 2.315097 H 66.32188 v -0.355533 q -0.138492,0.210839 -0.32246,0.314192 -0.1819,0.101285 -0.423745,0.101285 -0.398941,0 -0.605646,-0.248046 -0.206705,-0.248046 -0.206705,-0.725535 z m 0.957044,-1.45727 z"
         style="font-size:4.23332px;fill:#808000"
         id="path37415" />
      <path
         d="m 68.827146,14.312871 q -0.06408,-0.03721 -0.14056,-0.05374 -0.07441,-0.0186 -0.165364,-0.0186 -0.32246,0 -0.496092,0.210839 -0.171565,0.208772 -0.171565,0.601512 v 1.21956 H 67.47116 v -2.315097 h 0.382405 v 0.359667 q 0.119889,-0.210839 0.312125,-0.312125 0.192235,-0.103352 0.467153,-0.103352 0.03927,0 0.08682,0.0062 0.04754,0.0041 0.10542,0.01447 z"
         style="font-size:4.23332px;fill:#808000"
         id="path37417" />
      <path
         d="m 71.113305,15.019802 v 0.186035 h -1.748726 q 0.02481,0.392739 0.235644,0.599444 0.212907,0.204638 0.591177,0.204638 0.219107,0 0.423745,-0.05374 0.206705,-0.05374 0.409276,-0.16123 v 0.359667 q -0.204638,0.08682 -0.419611,0.132291 -0.214973,0.04547 -0.436148,0.04547 -0.553969,0 -0.878496,-0.32246 -0.32246,-0.322459 -0.32246,-0.872295 0,-0.568439 0.305923,-0.901234 0.307991,-0.334862 0.828888,-0.334862 0.467153,0 0.737937,0.301789 0.272851,0.299722 0.272851,0.816485 z m -0.380338,-0.111621 q -0.0041,-0.312124 -0.175699,-0.498159 -0.169498,-0.186034 -0.450617,-0.186034 -0.318326,0 -0.510562,0.179833 -0.190169,0.179833 -0.219107,0.506427 z"
         style="font-size:4.23332px;fill:#808000"
         id="path37419" />
      <path
         d="m 72.113757,13.300016 v 0.657322 h 0.783412 v 0.295588 h -0.783412 v 1.256767 q 0,0.283186 0.07648,0.363801 0.07855,0.08061 0.316258,0.08061 h 0.390673 v 0.318326 h -0.390673 q -0.440282,0 -0.607713,-0.163297 -0.167431,-0.165364 -0.167431,-0.599445 V 14.252926 H 71.4523 v -0.295588 h 0.279052 v -0.657322 z"
         style="font-size:4.23332px;fill:#808000"
         id="path37421" />
      <path
         d="m 75.636012,14.223988 q -0.303857,0 -0.458886,0.200503 -0.152961,0.198437 -0.190168,0.460953 h 1.298108 q -0.03721,-0.262516 -0.192236,-0.460953 -0.152962,-0.200503 -0.456818,-0.200503 z m 0.0021,1.785931 q 0.30799,0 0.481622,-0.239777 0.173633,-0.239778 0.173633,-0.545702 h -1.310511 q 0,0.305924 0.173633,0.545702 0.173632,0.239777 0.481623,0.239777 z m 0.0021,-2.108391 q 0.496092,0 0.779278,0.32246 0.283186,0.322459 0.283186,0.892966 0,0.568439 -0.283186,0.892965 -0.283186,0.32246 -0.779278,0.32246 -0.49816,0 -0.781346,-0.32246 -0.281118,-0.324526 -0.281118,-0.892965 0,-0.570507 0.281118,-0.892966 0.283186,-0.32246 0.781346,-0.32246 z"
         style="font-size:4.23332px;fill:#808000"
         id="path37423" />
      <path
         d="m 79.257485,14.875109 v 1.397326 h -0.380337 v -1.384924 q 0,-0.328661 -0.128157,-0.491958 -0.128157,-0.163297 -0.384472,-0.163297 -0.30799,0 -0.485757,0.19637 -0.177766,0.196369 -0.177766,0.535366 v 1.308443 h -0.382404 v -2.315097 h 0.382404 v 0.359667 q 0.136425,-0.208772 0.320393,-0.312125 0.186035,-0.103352 0.427879,-0.103352 0.398941,0 0.603579,0.248046 0.204638,0.245979 0.204638,0.725535 z"
         style="font-size:4.23332px;fill:#808000"
         id="path37425" />
      <path
         d="m 81.996327,15.019802 v 0.186035 h -1.748725 q 0.0248,0.392739 0.235644,0.599444 0.212906,0.204638 0.591176,0.204638 0.219108,0 0.423746,-0.05374 0.206705,-0.05374 0.409276,-0.16123 v 0.359667 q -0.204638,0.08682 -0.419612,0.132291 -0.214973,0.04547 -0.436147,0.04547 -0.55397,0 -0.878497,-0.32246 -0.32246,-0.322459 -0.32246,-0.872295 0,-0.568439 0.305924,-0.901234 0.30799,-0.334862 0.828887,-0.334862 0.467153,0 0.737937,0.301789 0.272851,0.299722 0.272851,0.816485 z m -0.380338,-0.111621 q -0.0041,-0.312124 -0.175699,-0.498159 -0.169498,-0.186034 -0.450617,-0.186034 -0.318326,0 -0.510562,0.179833 -0.190168,0.179833 -0.219107,0.506427 z"
         style="font-size:4.23332px;fill:#808000"
         id="path37427" />
      <path
         d="m 83.962093,14.312871 q -0.06408,-0.03721 -0.14056,-0.05374 -0.07441,-0.0186 -0.165364,-0.0186 -0.32246,0 -0.496092,0.210839 -0.171565,0.208772 -0.171565,0.601512 v 1.21956 h -0.382405 v -2.315097 h 0.382405 v 0.359667 q 0.119889,-0.210839 0.312124,-0.312125 0.192236,-0.103352 0.467154,-0.103352 0.03927,0 0.08682,0.0062 0.04754,0.0041 0.10542,0.01447 z"
         style="font-size:4.23332px;fill:#808000"
         id="path37429" />
      <path
         d="m 85.32428,16.487408 q -0.16123,0.41341 -0.314192,0.539501 -0.152962,0.12609 -0.409276,0.12609 h -0.303856 v -0.318326 h 0.223241 q 0.157096,0 0.243912,-0.07441 0.08682,-0.07441 0.192236,-0.351399 l 0.06821,-0.173632 -0.936375,-2.27789 h 0.403075 l 0.723468,1.810737 0.723468,-1.810737 h 0.403075 z m 0.177766,-3.600802 h 0.411343 l -0.673858,0.777211 h -0.316259 z"
         style="font-size:4.23332px;fill:#808000"
         id="path37431" />
      <path
         d="m 88.588151,13.300016 v 0.657322 h 0.783413 v 0.295588 h -0.783413 v 1.256767 q 0,0.283186 0.07648,0.363801 0.07855,0.08061 0.316259,0.08061 h 0.390673 V 16.27243 H 88.98089 q -0.440282,0 -0.607713,-0.163297 -0.167431,-0.165364 -0.167431,-0.599445 v -1.256767 h -0.279052 v -0.295588 h 0.279052 v -0.657322 z"
         style="font-size:4.23332px;fill:#808000"
         id="path37433" />
      <path
         d="m 90.93839,16.235228 v 0.917771 h -0.403075 v -0.917771 l -0.936374,-2.27789 h 0.403075 l 0.723468,1.810737 0.723467,-1.810737 h 0.403075 z"
         style="font-size:4.23332px;fill:#808000"
         id="path37435" />
      <path
         d="m 92.337782,15.358798 v -1.40146 h 0.380337 v 1.386991 q 0,0.328661 0.128157,0.494025 0.128158,0.163297 0.384472,0.163297 0.307991,0 0.485757,-0.19637 0.179833,-0.196369 0.179833,-0.535366 v -1.312577 h 0.380338 v 2.315097 h -0.380338 v -0.355533 q -0.138492,0.210839 -0.32246,0.314192 -0.1819,0.101285 -0.423745,0.101285 -0.398941,0 -0.605646,-0.248046 -0.206705,-0.248046 -0.206705,-0.725535 z m 0.957045,-1.45727 z"
         style="font-size:4.23332px;fill:#808000"
         id="path37437" />
      <path
         d="m 96.023335,16.487408 q -0.16123,0.41341 -0.314192,0.539501 -0.152962,0.12609 -0.409276,0.12609 H 94.99601 v -0.318326 h 0.223242 q 0.157096,0 0.243912,-0.07441 0.08682,-0.07441 0.192236,-0.351399 l 0.06821,-0.173632 -0.936374,-2.27789 h 0.403075 l 0.723468,1.810737 0.723468,-1.810737 h 0.403075 z"
         style="font-size:4.23332px;fill:#808000"
         id="path37439" />
      <path
         d="m 99.489778,14.875109 v 1.397326 H 99.10944 v -1.384924 q 0,-0.328661 -0.128157,-0.491958 -0.128157,-0.163297 -0.384471,-0.163297 -0.307991,0 -0.485757,0.19637 -0.177767,0.196369 -0.177767,0.535366 v 1.308443 h -0.382404 v -2.315097 h 0.382404 v 0.359667 q 0.136426,-0.208772 0.320393,-0.312125 0.186035,-0.103352 0.42788,-0.103352 0.39894,0 0.603579,0.248046 0.204638,0.245979 0.204638,0.725535 z"
         style="font-size:4.23332px;fill:#808000"
         id="path37441" />
      <path
         d="m 101.7718,14.308737 v -1.252633 h 0.38034 v 3.216331 H 101.7718 V 15.92517 q -0.11989,0.206706 -0.30385,0.307991 -0.1819,0.09922 -0.43822,0.09922 -0.41961,0 -0.68419,-0.334862 -0.26252,-0.334862 -0.26252,-0.880563 0,-0.545702 0.26252,-0.880564 0.26458,-0.334862 0.68419,-0.334862 0.25632,0 0.43822,0.101285 0.18396,0.09922 0.30385,0.305924 z m -1.29604,0.808217 q 0,0.419611 0.17157,0.659389 0.17363,0.237711 0.47542,0.237711 0.30179,0 0.47542,-0.237711 0.17363,-0.239778 0.17363,-0.659389 0,-0.419612 -0.17363,-0.657323 -0.17363,-0.239778 -0.47542,-0.239778 -0.30179,0 -0.47542,0.239778 -0.17157,0.237711 -0.17157,0.657323 z"
         style="font-size:4.23332px;fill:#808000"
         id="path37443" />
      <path
         d="m 103.8988,16.487408 q -0.16123,0.41341 -0.31419,0.539501 -0.15296,0.12609 -0.40928,0.12609 h -0.30385 v -0.318326 h 0.22324 q 0.15709,0 0.24391,-0.07441 0.0868,-0.07441 0.19223,-0.351399 l 0.0682,-0.173632 -0.93638,-2.27789 h 0.40308 l 0.72347,1.810737 0.72346,-1.810737 h 0.40308 z"
         style="font-size:4.23332px;fill:#808000"
         id="path37445" />
      <path
         d="m 105.44082,13.056104 h 0.38034 v 3.216331 h -0.38034 z"
         style="font-size:4.23332px;fill:#808000"
         id="path37447" />
      <path
         d="m 107.6691,15.108685 q -0.46095,0 -0.63872,0.10542 -0.17777,0.105419 -0.17777,0.359667 0,0.202571 0.13229,0.32246 0.13436,0.117822 0.36381,0.117822 0.31625,0 0.50642,-0.223242 0.19224,-0.225308 0.19224,-0.597378 v -0.08475 z m 0.75861,-0.157096 v 1.320846 h -0.38034 v -0.351399 q -0.13023,0.21084 -0.32453,0.312125 -0.1943,0.09922 -0.47542,0.09922 -0.35553,0 -0.56637,-0.198436 -0.20877,-0.200504 -0.20877,-0.535367 0,-0.390672 0.26044,-0.589109 0.26252,-0.198437 0.78135,-0.198437 h 0.5333 v -0.03721 q 0,-0.262515 -0.17363,-0.405142 -0.17157,-0.144693 -0.48369,-0.144693 -0.19844,0 -0.38654,0.04754 -0.1881,0.04754 -0.36174,0.142626 v -0.351398 q 0.20878,-0.08061 0.40515,-0.119889 0.19637,-0.04134 0.3824,-0.04134 0.50229,0 0.75034,0.260448 0.24805,0.260448 0.24805,0.789613 z"
         style="font-size:4.23332px;fill:#808000"
         id="path37449" />
      <path
         d="m 110.55264,14.312871 q -0.0641,-0.03721 -0.14056,-0.05374 -0.0744,-0.0186 -0.16537,-0.0186 -0.32246,0 -0.49609,0.210839 -0.17156,0.208772 -0.17156,0.601512 v 1.21956 h -0.38241 v -2.315097 h 0.38241 v 0.359667 q 0.11988,-0.210839 0.31212,-0.312125 0.19224,-0.103352 0.46715,-0.103352 0.0393,0 0.0868,0.0062 0.0475,0.0041 0.10542,0.01447 z"
         style="font-size:4.23332px;fill:#808000"
         id="path37451" />
      <path
         d="m 111.91482,16.487408 q -0.16123,0.41341 -0.31419,0.539501 -0.15296,0.12609 -0.40928,0.12609 h -0.30385 v -0.318326 h 0.22324 q 0.15709,0 0.24391,-0.07441 0.0868,-0.07441 0.19224,-0.351399 l 0.0682,-0.173632 -0.93637,-2.27789 h 0.40307 l 0.72347,1.810737 0.72347,-1.810737 h 0.40307 z"
         style="font-size:4.23332px;fill:#808000"
         id="path37453" />
    </g>
    <path
       style="fill:none;stroke:#808000;stroke-width:0.865;stroke-linecap:butt;stroke-linejoin:miter;stroke-miterlimit:4;stroke-dasharray:none;stroke-opacity:1"
       d="m 60.408893,5.6870646 c 1.549711,-1.255351 2.840896,-0.324758 4.104744,-0.916173 v 0"
       id="path8394"
       sodipodi:nodetypes="ccc" />
    <path
       style="fill:none;stroke:#878678;stroke-width:0.222007px;stroke-linecap:butt;stroke-linejoin:miter;stroke-opacity:1"
       d="m 51.047293,4.5974853 c 0,12.4585497 0,12.5894057 0,12.5894057"
       id="path111900" />
  </g>
</svg>
